<svg width="16" height="17" viewBox="0 0 16 17" fill="none" xmlns="http://www.w3.org/2000/svg">
<path d="M5.33397 8.57837C5.33397 7.10567 6.52756 5.91149 8.00032 5.91149C9.47308 5.91149 10.6673 7.10567 10.6673 8.57837C10.6673 10.0511 9.47308 11.2452 8.00032 11.2452C6.52756 11.2452 5.33397 10.0511 5.33397 8.57837ZM3.89225 8.57837C3.89225 10.8472 5.73143 12.6863 8.00032 12.6863C10.2692 12.6863 12.1084 10.8472 12.1084 8.57837C12.1084 6.30957 10.2692 4.47046 8.00032 4.47046C5.73143 4.47046 3.89225 6.30944 3.89225 8.57837ZM11.311 4.30759C11.311 4.49746 11.3672 4.68308 11.4726 4.841C11.5781 4.99891 11.7279 5.12202 11.9033 5.19475C12.0787 5.26748 12.2718 5.28656 12.458 5.2496C12.6442 5.21263 12.8153 5.12127 12.9497 4.98706C13.084 4.85286 13.1755 4.68184 13.2126 4.49563C13.2497 4.30943 13.2308 4.11639 13.1582 3.94095C13.0856 3.7655 12.9626 3.61552 12.8048 3.50997C12.6469 3.40442 12.4613 3.34805 12.2715 3.34797C12.017 3.34809 11.7725 3.44922 11.5925 3.62914C11.4125 3.80907 11.3113 4.05308 11.311 4.30759ZM4.76819 15.0902C3.98819 15.0547 3.56424 14.9248 3.2825 14.815C2.90898 14.6696 2.64247 14.4964 2.36227 14.2166C2.08207 13.9368 1.90862 13.6706 1.76385 13.2971C1.65402 13.0155 1.52409 12.5914 1.48864 11.8115C1.44985 10.9682 1.44211 10.7149 1.44211 8.5785C1.44211 6.44211 1.45049 6.1895 1.48864 5.34554C1.52416 4.56557 1.65504 4.14234 1.76385 3.85991C1.90926 3.4864 2.08245 3.21991 2.36227 2.93971C2.64209 2.65952 2.90834 2.48608 3.2825 2.34131C3.56411 2.23149 3.98819 2.10157 4.76819 2.06611C5.61149 2.02733 5.86481 2.01959 8.00032 2.01959C10.1358 2.01959 10.3894 2.02784 11.2334 2.06624C12.0134 2.10176 12.4367 2.23264 12.7191 2.34144C13.0926 2.48621 13.3591 2.66003 13.6393 2.93984C13.9195 3.21965 14.0923 3.48653 14.2378 3.86003C14.3476 4.14163 14.4775 4.5657 14.513 5.34566C14.5517 6.18963 14.5595 6.44224 14.5595 8.57862C14.5595 10.715 14.5517 10.9676 14.513 11.8116C14.4774 12.5916 14.3469 13.0155 14.2378 13.2972C14.0923 13.6707 13.9191 13.9372 13.6393 14.2168C13.3595 14.4963 13.0926 14.6698 12.7191 14.8152C12.4375 14.925 12.0134 15.0549 11.2334 15.0904C10.3901 15.1292 10.1368 15.1369 8.00032 15.1369C5.86385 15.1369 5.61123 15.129 4.76819 15.0902ZM4.70195 0.626817C3.85027 0.665601 3.26829 0.800641 2.76005 0.998401C2.23401 1.20263 1.7881 1.47661 1.34284 1.92115C0.897572 2.3657 0.624281 2.81165 0.420049 3.33831C0.222281 3.84685 0.0872355 4.42848 0.04845 5.28013C0.00902441 6.13312 0 6.40583 0 8.57837C0 10.7509 0.00902441 11.0236 0.04845 11.8766C0.0872355 12.7283 0.222281 13.3099 0.420049 13.8184C0.624281 14.3444 0.897636 14.7912 1.34284 15.2356C1.78804 15.6799 2.23337 15.9535 2.76005 16.1583C3.26925 16.3561 3.85027 16.4911 4.70195 16.5299C5.55542 16.5687 5.82769 16.5784 8.00032 16.5784C10.173 16.5784 10.4457 16.5693 11.2987 16.5299C12.1504 16.4911 12.732 16.3561 13.2406 16.1583C13.7666 15.9535 14.2125 15.6801 14.6578 15.2356C15.1031 14.791 15.3758 14.3444 15.5806 13.8184C15.7784 13.3099 15.914 12.7283 15.9522 11.8766C15.991 11.023 16 10.7509 16 8.57837C16 6.40583 15.991 6.13312 15.9522 5.28013C15.9134 4.42842 15.7784 3.84653 15.5806 3.33831C15.3758 2.81229 15.1024 2.3664 14.6578 1.92115C14.2132 1.47591 13.7666 1.20263 13.2412 0.998401C12.732 0.800641 12.1504 0.664961 11.2993 0.626817C10.4462 0.587841 10.1736 0.578369 8.00128 0.578369C5.82897 0.578369 5.55542 0.587393 4.70195 0.626817Z" fill="#0A476A"/>
</svg>
