<svg width="14" height="15" viewBox="0 0 14 15" fill="none" xmlns="http://www.w3.org/2000/svg">
<path d="M6.80294 5.5743C7.52316 4.83837 8.46094 4.35692 9.55188 4.35692C10.6975 4.35692 11.7963 4.81203 12.6064 5.62214C13.4165 6.43226 13.8716 7.531 13.8716 8.67667V14.5673H12.3008V8.67667C12.3008 7.94761 12.0112 7.24841 11.4957 6.73288C10.9801 6.21736 10.2809 5.92774 9.55188 5.92774C8.82281 5.92774 8.12361 6.21736 7.60809 6.73288C7.09256 7.24841 6.80294 7.94761 6.80294 8.67667V14.5673H5.23212V4.74962H6.80294V5.5743ZM1.30507 3.1788C0.992613 3.1788 0.692955 3.05468 0.472015 2.83374C0.251076 2.6128 0.126953 2.31314 0.126953 2.00069C0.126953 1.68823 0.251076 1.38857 0.472015 1.16763C0.692955 0.946693 0.992613 0.822571 1.30507 0.822571C1.61752 0.822571 1.91718 0.946693 2.13812 1.16763C2.35906 1.38857 2.48318 1.68823 2.48318 2.00069C2.48318 2.31314 2.35906 2.6128 2.13812 2.83374C1.91718 3.05468 1.61752 3.1788 1.30507 3.1788ZM0.519658 4.74962H2.09048V14.5673H0.519658V4.74962Z" fill="#0A476A"/>
</svg>
