<svg width="14" height="14" viewBox="0 0 14 14" fill="none" xmlns="http://www.w3.org/2000/svg">
<path fill-rule="evenodd" clip-rule="evenodd" d="M0.962427 6.17478C4.72052 4.34018 7.2265 3.1307 8.48037 2.54634C12.0604 0.877873 12.8043 0.588042 13.2892 0.578471C13.3959 0.576366 13.6343 0.605979 13.7887 0.746407C13.9192 0.864982 13.9551 1.02516 13.9722 1.13758C13.9894 1.25 14.0108 1.5061 13.9938 1.70621C13.7998 3.99022 12.9603 9.5329 12.5332 12.091C12.3525 13.1735 11.9967 13.5364 11.6522 13.5719C10.9036 13.6491 10.3351 13.0176 9.61007 12.485C8.47546 11.6517 7.83448 11.1329 6.73315 10.3197C5.46037 9.37991 6.28546 8.86339 7.01082 8.01924C7.20064 7.79832 10.4991 4.43667 10.5629 4.13171C10.5709 4.09357 10.5783 3.95141 10.503 3.87634C10.4276 3.80127 10.3163 3.82694 10.236 3.84735C10.1223 3.87629 8.3097 5.21866 4.79841 7.87444C4.28392 8.27029 3.81791 8.46315 3.40039 8.45305C2.9401 8.44191 2.05469 8.16144 1.39648 7.9217C0.589162 7.62766 -0.0524811 7.4722 0.00339163 6.97282C0.0324936 6.71271 0.352172 6.4467 0.962427 6.17478Z" fill="#0A476A"/>
</svg>
