<svg width="23" height="17" viewBox="0 0 23 17" fill="none" xmlns="http://www.w3.org/2000/svg">
<path d="M21.7205 3.03529C21.6013 2.57501 21.3673 2.15532 21.0421 1.81833C20.7169 1.48135 20.3118 1.23892 19.8676 1.11538C18.654 0.629565 6.89652 0.391546 3.4854 1.12897C3.04111 1.25255 2.63602 1.49506 2.31078 1.83215C1.98554 2.16923 1.75161 2.58904 1.63246 3.04942C1.0844 5.53992 1.04297 10.9241 1.6461 13.4706C1.76533 13.9309 1.9993 14.3506 2.32453 14.6876C2.64976 15.0246 3.05481 15.267 3.49904 15.3905C5.90266 15.9638 17.3297 16.0443 19.8812 15.3905C20.3254 15.267 20.7305 15.0246 21.0557 14.6876C21.381 14.3506 21.6149 13.9309 21.7342 13.4706C22.3184 10.7573 22.3598 5.70675 21.7205 3.03529Z" stroke="#0A476A" stroke-linecap="round" stroke-linejoin="round"/>
<path d="M14.9523 8.61676L9.88843 5.72314V11.5104L14.9523 8.61676Z" fill="#0A476A" stroke="#0A476A" stroke-linecap="round" stroke-linejoin="round"/>
</svg>
