<svg width="48" height="48" viewBox="0 0 48 48" fill="none" xmlns="http://www.w3.org/2000/svg">
<path d="M8.45991 40C8.17591 40 7.93858 39.904 7.74791 39.712C7.55725 39.52 7.46191 39.2827 7.46191 39V31C7.46191 30.716 7.55791 30.4787 7.74991 30.288C7.94191 30.0973 8.17991 30.0013 8.46391 30C8.74791 29.9987 8.98525 30.0947 9.17591 30.288C9.36658 30.4813 9.46191 30.7187 9.46191 31V39C9.46191 39.284 9.36591 39.5213 9.17391 39.712C8.98191 39.904 8.74391 40 8.45991 40ZM16.6999 24H35.2999L31.6999 12H20.2999L16.6999 24ZM13.9999 36C13.7159 36 13.4786 35.904 13.2879 35.712C13.0972 35.52 13.0012 35.282 12.9999 34.998C12.9986 34.714 13.0946 34.4767 13.2879 34.286C13.4812 34.0953 13.7186 34 13.9999 34H21.9999C22.8226 34 23.5286 33.706 24.1179 33.118C24.7059 32.5287 24.9999 31.8227 24.9999 31V26H16.1539C15.6152 26 15.1846 25.78 14.8619 25.34C14.5392 24.9 14.4646 24.424 14.6379 23.912L18.4419 11.128C18.5472 10.7813 18.7406 10.5067 19.0219 10.304C19.3046 10.1013 19.6279 10 19.9919 10H32.0079C32.3719 10 32.6946 10.1013 32.9759 10.304C33.2586 10.5067 33.4526 10.7807 33.5579 11.126L37.3619 23.912C37.5352 24.4253 37.4606 24.9013 37.1379 25.34C36.8152 25.7787 36.3846 25.9987 35.8459 26H26.9999V30.996C26.9999 32.3827 26.5132 33.5633 25.5399 34.538C24.5706 35.5127 23.3906 36 21.9999 36H13.9999Z" fill="#97BD33"/>
</svg>
