<svg width="24" height="25" viewBox="0 0 24 25" fill="none" xmlns="http://www.w3.org/2000/svg">
<path d="M13 21.7138V22.887H14.1734C14.5827 22.887 14.7874 22.887 14.9715 22.8108C15.1555 22.7345 15.3003 22.5898 15.5897 22.3004L20.4133 17.4764C20.6864 17.2034 20.8229 17.0669 20.8959 16.9197C21.0347 16.6395 21.0347 16.3106 20.8959 16.0304C20.8229 15.8831 20.6864 15.7466 20.4133 15.4736C20.1403 15.2006 20.0038 15.0641 19.8565 14.9911C19.5763 14.8523 19.2473 14.8523 18.9671 14.9911C18.8198 15.0641 18.6833 15.2006 18.4103 15.4736L13.5867 20.2976C13.2972 20.587 13.1525 20.7317 13.0762 20.9157C13 21.0998 13 21.3044 13 21.7138Z" stroke="#06273A" stroke-width="1.4" stroke-linejoin="round"/>
<path d="M19 11.887C19 11.887 19 10.3176 18.8478 9.95002C18.6955 9.58248 18.4065 9.29345 17.8284 8.71539L13.0919 3.97884C12.593 3.47996 12.3436 3.23051 12.0345 3.08271C11.9702 3.05196 11.9044 3.02468 11.8372 3.00097C11.5141 2.88696 11.1614 2.88696 10.4558 2.88696C7.21082 2.88696 5.58831 2.88696 4.48933 3.77303C4.26731 3.95204 4.06508 4.15427 3.88607 4.37629C3 5.47527 3 7.09778 3 10.3428V14.887C3 18.6582 3 20.5439 4.17157 21.7154C5.23467 22.7785 6.8857 22.877 10 22.8861M12 3.38696V3.88696C12 6.71539 12 8.1296 12.8787 9.00828C13.7574 9.88696 15.1716 9.88696 18 9.88696H18.5" stroke="#06273A" stroke-width="1.4" stroke-linecap="round" stroke-linejoin="round"/>
</svg>
