<svg width="24" height="25" viewBox="0 0 24 25" fill="none" xmlns="http://www.w3.org/2000/svg">
<path d="M12 5.88696V22.887M12 22.887H9M12 22.887H15" stroke="#06273A" stroke-width="1.4" stroke-linecap="round" stroke-linejoin="round"/>
<path d="M20.9998 13.887L18.4998 8.88696L15.9998 13.887" stroke="#06273A" stroke-width="1.4" stroke-linecap="round" stroke-linejoin="round"/>
<path d="M8 13.887L5.5 8.88696L3 13.887" stroke="#06273A" stroke-width="1.4" stroke-linecap="round" stroke-linejoin="round"/>
<path d="M3.99976 8.88696H5.04796C6.31142 8.88696 7.53726 8.35796 8.52386 7.38696C10.556 5.38696 13.4436 5.38696 15.4757 7.38696C16.4623 8.35796 17.6881 8.88696 18.9516 8.88696H19.9998" stroke="#06273A" stroke-width="1.4" stroke-linecap="round" stroke-linejoin="round"/>
<path d="M18.5 17.887C19.8547 17.887 21.0344 17.0533 21.6473 15.8219C21.978 15.1572 22.1434 14.8249 21.8415 14.356C21.5396 13.887 21.04 13.887 20.0407 13.887H16.9593C15.96 13.887 15.4604 13.887 15.1585 14.356C14.8566 14.8249 15.022 15.1572 15.3527 15.8219C15.9656 17.0533 17.1453 17.887 18.5 17.887Z" stroke="#06273A" stroke-width="1.4"/>
<path d="M5.50025 17.887C6.85496 17.887 8.03467 17.0533 8.64751 15.8219C8.97827 15.1572 9.14364 14.8249 8.84176 14.356C8.53987 13.887 8.04025 13.887 7.041 13.887H3.9595C2.96025 13.887 2.46063 13.887 2.15874 14.356C1.85686 14.8249 2.02223 15.1572 2.35298 15.8219C2.96583 17.0533 4.14553 17.887 5.50025 17.887Z" stroke="#06273A" stroke-width="1.4"/>
<path d="M13.5 4.38696C13.5 5.21539 12.8284 5.88696 12 5.88696C11.1716 5.88696 10.5 5.21539 10.5 4.38696C10.5 3.55853 11.1716 2.88696 12 2.88696C12.8284 2.88696 13.5 3.55853 13.5 4.38696Z" stroke="#06273A" stroke-width="1.4"/>
</svg>
