<svg width="28" height="28" viewBox="0 0 28 28" fill="none" xmlns="http://www.w3.org/2000/svg">
<path d="M21.2098 9.38009L21.75 8.83876C22.1801 8.40851 22.7635 8.16674 23.3718 8.16663C23.9802 8.16652 24.5636 8.40808 24.9939 8.83817C25.4241 9.26826 25.6659 9.85166 25.666 10.46C25.6661 11.0684 25.4246 11.6518 24.9945 12.0821L24.4543 12.6234M21.2098 9.38009C21.2098 9.38009 21.2775 10.5281 22.2913 11.5419C23.3051 12.5558 24.4543 12.6234 24.4543 12.6234M21.2098 9.38009L16.2398 14.3501C15.9015 14.6861 15.7335 14.8553 15.5888 15.0408C15.4177 15.2601 15.2723 15.4958 15.1525 15.7478C15.051 15.9601 14.9763 16.1853 14.8258 16.6368L14.344 18.0834L14.1876 18.5513M24.4543 12.6234L19.4843 17.5934C19.146 17.9318 18.978 18.0998 18.7925 18.2444C18.5731 18.4155 18.3375 18.561 18.0855 18.6808C17.8731 18.7823 17.648 18.8569 17.1965 19.0074L15.7498 19.4893L15.282 19.6456M14.1876 18.5513L14.0325 19.0203C13.9963 19.1291 13.9912 19.2459 14.0176 19.3575C14.044 19.4691 14.101 19.5712 14.1821 19.6523C14.2632 19.7334 14.3653 19.7904 14.4769 19.8168C14.5885 19.8432 14.7053 19.8381 14.8141 19.8019L15.282 19.6456M14.1876 18.5513L15.282 19.6456" stroke="white" stroke-width="2"/>
<path d="M9.33333 15.1667H12.25M9.33333 10.5H16.9167M9.33333 19.8334H11.0833M23.1327 3.70071C21.7665 2.33337 19.5662 2.33337 15.1667 2.33337H12.8333C8.43383 2.33337 6.2335 2.33337 4.86733 3.70071C3.50117 5.06804 3.5 7.26721 3.5 11.6667V16.3334C3.5 20.7329 3.5 22.9332 4.86733 24.2994C6.23467 25.6655 8.43383 25.6667 12.8333 25.6667H15.1667C19.5662 25.6667 21.7665 25.6667 23.1327 24.2994C24.234 23.1992 24.4475 21.56 24.4895 18.6667" stroke="white" stroke-width="2" stroke-linecap="round"/>
</svg>
