<svg width="40" height="40" viewBox="0 0 40 40" fill="none" xmlns="http://www.w3.org/2000/svg">
<g clip-path="url(#clip0_5416_26623)">
<path d="M11.667 18.3333C11.667 17.4493 12.0182 16.6014 12.6433 15.9763C13.2684 15.3512 14.1163 15 15.0003 15H31.667C32.551 15 33.3989 15.3512 34.024 15.9763C34.6491 16.6014 35.0003 17.4493 35.0003 18.3333V28.3333C35.0003 29.2174 34.6491 30.0652 34.024 30.6904C33.3989 31.3155 32.551 31.6667 31.667 31.6667H15.0003C14.1163 31.6667 13.2684 31.3155 12.6433 30.6904C12.0182 30.0652 11.667 29.2174 11.667 28.3333V18.3333Z" stroke="#0a476a" stroke-width="1.5" stroke-linecap="round" stroke-linejoin="round"/>
<path d="M20 23.3333C20 24.2174 20.3512 25.0652 20.9763 25.6904C21.6014 26.3155 22.4493 26.6667 23.3333 26.6667C24.2174 26.6667 25.0652 26.3155 25.6904 25.6904C26.3155 25.0652 26.6667 24.2174 26.6667 23.3333C26.6667 22.4493 26.3155 21.6014 25.6904 20.9763C25.0652 20.3512 24.2174 20 23.3333 20C22.4493 20 21.6014 20.3512 20.9763 20.9763C20.3512 21.6014 20 22.4493 20 23.3333Z" stroke="#0a476a" stroke-width="1.5" stroke-linecap="round" stroke-linejoin="round"/>
<path d="M28.3333 14.9997V11.6663C28.3333 10.7823 27.9821 9.93444 27.357 9.30932C26.7319 8.6842 25.8841 8.33301 25 8.33301H8.33333C7.44928 8.33301 6.60143 8.6842 5.97631 9.30932C5.35119 9.93444 5 10.7823 5 11.6663V21.6663C5 22.5504 5.35119 23.3982 5.97631 24.0234C6.60143 24.6485 7.44928 24.9997 8.33333 24.9997H11.6667" stroke="#0a476a" stroke-width="1.5" stroke-linecap="round" stroke-linejoin="round"/>
</g>
<defs>
<clipPath id="clip0_5416_26623">
<rect width="40" height="40" fill="white"/>
</clipPath>
</defs>
</svg>
