<svg width="40" height="40" viewBox="0 0 40 40" fill="none" xmlns="http://www.w3.org/2000/svg">
<g clip-path="url(#clip0_8431_81859)">
<path d="M5 21.5C5 21.1022 5.15804 20.7206 5.43934 20.4393C5.72064 20.158 6.10218 20 6.5 20H12.5C12.8978 20 13.2794 20.158 13.5607 20.4393C13.842 20.7206 14 21.1022 14 21.5V30.5C14 30.8978 13.842 31.2794 13.5607 31.5607C13.2794 31.842 12.8978 32 12.5 32H6.5C6.10218 32 5.72064 31.842 5.43934 31.5607C5.15804 31.2794 5 30.8978 5 30.5V21.5Z" stroke="#041E2D" stroke-width="1.5" stroke-linecap="round" stroke-linejoin="round"/>
<path d="M14 15.5C14 15.1022 14.1405 14.7206 14.3905 14.4393C14.6406 14.158 14.9797 14 15.3333 14H20.6667C21.0203 14 21.3594 14.158 21.6095 14.4393C21.8595 14.7206 22 15.1022 22 15.5V30.5C22 30.8978 21.8595 31.2794 21.6095 31.5607C21.3594 31.842 21.0203 32 20.6667 32H15.3333C14.9797 32 14.6406 31.842 14.3905 31.5607C14.1405 31.2794 14 30.8978 14 30.5V15.5Z" stroke="#041E2D" stroke-width="1.5" stroke-linecap="round" stroke-linejoin="round"/>
<path d="M22 9.5C22 9.10218 22.158 8.72064 22.4393 8.43934C22.7206 8.15804 23.1022 8 23.5 8H29.5C29.8978 8 30.2794 8.15804 30.5607 8.43934C30.842 8.72064 31 9.10218 31 9.5V30.5C31 30.8978 30.842 31.2794 30.5607 31.5607C30.2794 31.842 29.8978 32 29.5 32H23.5C23.1022 32 22.7206 31.842 22.4393 31.5607C22.158 31.2794 22 30.8978 22 30.5V9.5Z" stroke="#041E2D" stroke-width="1.5" stroke-linecap="round" stroke-linejoin="round"/>
<path d="M6 32H27" stroke="#041E2D" stroke-width="1.5" stroke-linecap="round" stroke-linejoin="round"/>
</g>
<defs>
<clipPath id="clip0_8431_81859">
<rect width="40" height="40" fill="white"/>
</clipPath>
</defs>
</svg>
