<svg width="764" height="567" viewBox="0 0 764 567" fill="none" xmlns="http://www.w3.org/2000/svg">
<circle cx="368.367" cy="264.859" r="264.859" fill="#E8F5FF"/>
<circle cx="368.367" cy="264.859" r="207.016" fill="#BFE3FF"/>
<path d="M369.744 525.971C345.427 550.825 311.511 566.25 273.992 566.25C229.209 566.25 189.559 544.274 165.238 510.518C153.232 543.052 121.946 566.25 85.2419 566.25C38.1642 566.25 0 528.086 0 481.008C0 433.93 38.1642 395.766 85.2419 395.766C106.544 395.766 126.02 403.58 140.963 416.497C148.781 349.965 205.358 298.347 273.992 298.347C320.235 298.347 361.005 321.779 385.076 357.418C405.118 341.407 430.529 331.835 458.175 331.835C509.188 331.835 552.589 364.424 568.694 409.918C580.972 402.852 595.211 398.811 610.393 398.811C654.965 398.811 691.401 433.641 693.968 477.569C698.77 475.854 703.943 474.919 709.335 474.919C734.555 474.919 755 495.364 755 520.585C755 545.805 734.555 566.25 709.335 566.25C691.939 566.25 676.815 556.523 669.105 542.212C653.995 557.078 633.265 566.25 610.393 566.25C582.178 566.25 557.224 552.293 542.056 530.906C520.772 552.712 491.055 566.25 458.175 566.25C422.882 566.25 391.232 550.651 369.744 525.971Z" fill="#F8FDFF"/>
<path d="M755 520.585C755 495.364 734.555 474.919 709.335 474.919C703.943 474.919 698.77 475.854 693.968 477.569C691.401 433.641 654.965 398.811 610.393 398.811C595.211 398.811 580.972 402.852 568.694 409.918C552.588 364.424 509.188 331.835 458.175 331.835C430.529 331.835 405.118 341.407 385.075 357.418C361.005 321.779 320.235 298.347 273.992 298.347C205.358 298.347 148.781 349.965 140.963 416.497C126.021 403.58 106.544 395.766 85.242 395.766C56.9699 395.766 31.9124 409.53 16.4049 430.723" stroke="#006DBE" stroke-width="16.8548" stroke-linecap="round"/>
<circle cx="477.133" cy="137.133" r="9.13307" stroke="#005EA3" stroke-width="12.6411"/>
<circle cx="639.089" cy="312.089" r="6.08871" stroke="#005EA3" stroke-width="12.6411"/>
<circle cx="103.7" cy="290.7" r="13.6996" stroke="#005EA3" stroke-width="12.6411"/>
<path d="M240.399 228.327H210.06M261.814 202.062V176.573" stroke="#006DBE" stroke-width="12.6411" stroke-linecap="round"/>
<path d="M242.184 207.46L222.004 187.28" stroke="#006DBE" stroke-width="12.6411" stroke-linecap="round"/>
<circle cx="360.756" cy="318.135" r="86.7641" fill="#E8F5FF"/>
<path d="M290.303 315.35C289.544 330.846 290.417 347.34 277.529 357.723C271.53 362.556 268 370.14 268 378.195C268 389.274 276.079 398.7 286.6 398.7H435.4C445.921 398.7 454 389.274 454 378.195C454 370.14 450.47 362.556 444.471 357.723C431.583 347.34 432.456 330.846 431.697 315.35C429.718 274.96 398.653 243.3 361 243.3C323.347 243.3 292.282 274.96 290.303 315.35Z" stroke="#141B34" stroke-width="13" stroke-linecap="round" stroke-linejoin="round"/>
<path d="M345.5 222.487C345.5 231.683 352.44 243.3 361 243.3C369.56 243.3 376.5 231.683 376.5 222.487C376.5 213.292 369.56 210 361 210C352.44 210 345.5 213.292 345.5 222.487Z" stroke="#141B34" stroke-width="13"/>
<path d="M392 398.7C392 417.091 378.121 432 361 432C343.879 432 330 417.091 330 398.7" stroke="#141B34" stroke-width="13" stroke-linecap="round" stroke-linejoin="round"/>
</svg>
