<svg width="142" height="28" viewBox="0 0 142 28" fill="none" xmlns="http://www.w3.org/2000/svg">
<path d="M32.72 9.44223L34.6 4.53223H35.3L37.3 9.44223H36.56L35.99 7.95224H33.95L33.41 9.44223H32.72ZM34.13 7.42224H35.79L35.28 6.06223C35.12 5.65223 35.01 5.31224 34.93 5.04224C34.87 5.35224 34.78 5.67224 34.67 5.98224L34.13 7.42224Z" fill="#094160"/>
<path d="M37.4199 9.44247V8.84247L39.9199 5.70248C40.0999 5.48248 40.2699 5.28247 40.4299 5.12247H37.6999V4.54248H41.1999V5.12247L38.4599 8.53247L38.1599 8.87247H41.2799V9.45248H37.4199V9.44247Z" fill="#094160"/>
<path d="M46.29 6.93265C46.31 7.67265 46.13 8.29264 45.76 8.77264C45.38 9.27264 44.81 9.52264 44.04 9.52264C43.27 9.52264 42.7 9.27264 42.32 8.77264C41.97 8.30264 41.79 7.69265 41.79 6.93265V6.62262H45.5901C45.5601 6.13262 45.42 5.74265 45.16 5.46265C44.88 5.17265 44.5101 5.02264 44.0301 5.02264C43.3201 5.02264 42.88 5.36264 42.7 6.05264L42.07 5.88263C42.19 5.42263 42.43 5.06262 42.79 4.81262C43.13 4.57262 43.5401 4.45264 44.0301 4.45264C44.4701 4.45264 44.87 4.56262 45.23 4.78262C45.59 5.00262 45.86 5.31265 46.05 5.71265C46.21 6.05265 46.29 6.46265 46.3 6.93265H46.29ZM45.6201 7.20264H42.4601C42.4801 7.75264 42.64 8.18262 42.92 8.50262C43.2 8.82262 43.57 8.98264 44.04 8.98264C44.51 8.98264 44.88 8.82262 45.16 8.50262C45.44 8.18262 45.5901 7.75264 45.6201 7.20264Z" fill="#094160"/>
<path d="M47.13 9.44223V4.53223H49.3C49.74 4.53223 50.07 4.57223 50.29 4.66223C50.52 4.75223 50.7 4.90223 50.83 5.13223C50.97 5.35223 51.03 5.60222 51.03 5.87222C51.03 6.22222 50.92 6.51223 50.69 6.75223C50.47 6.99223 50.12 7.14225 49.65 7.21225C49.82 7.29225 49.95 7.37224 50.04 7.45224C50.23 7.62224 50.41 7.84223 50.58 8.10223L51.43 9.44223H50.62L49.97 8.42224C49.78 8.13224 49.63 7.90225 49.5 7.74225C49.38 7.58225 49.27 7.47223 49.17 7.41223C49.07 7.35223 48.97 7.30223 48.87 7.28223C48.8 7.26223 48.68 7.26224 48.51 7.26224H47.76V9.44223H47.11H47.13ZM47.78 6.70224H49.17C49.47 6.70224 49.7 6.67224 49.86 6.61224C50.02 6.55224 50.15 6.45224 50.24 6.32224C50.33 6.18224 50.37 6.04223 50.37 5.88223C50.37 5.65223 50.29 5.46223 50.12 5.31223C49.95 5.16223 49.69 5.09222 49.32 5.09222H47.77V6.71225L47.78 6.70224Z" fill="#094160"/>
<path d="M52.02 9.44223V4.53223H53.85C54.22 4.53223 54.52 4.58225 54.75 4.68225C54.98 4.78225 55.15 4.93224 55.28 5.14224C55.41 5.35224 55.47 5.56224 55.47 5.79224C55.47 6.00224 55.41 6.20223 55.3 6.38223C55.19 6.56223 55.02 6.71224 54.79 6.83224C55.09 6.92224 55.31 7.07223 55.47 7.28223C55.63 7.49223 55.71 7.74225 55.71 8.02225C55.71 8.25225 55.66 8.46223 55.57 8.66223C55.47 8.86223 55.35 9.01222 55.21 9.12222C55.07 9.23222 54.89 9.31224 54.67 9.36224C54.46 9.41224 54.19 9.44223 53.88 9.44223H52.02ZM52.67 6.59222H53.73C54.02 6.59222 54.22 6.57223 54.35 6.53223C54.51 6.48223 54.64 6.40224 54.72 6.29224C54.8 6.18224 54.85 6.03224 54.85 5.86224C54.85 5.70224 54.81 5.55225 54.73 5.43225C54.65 5.31225 54.54 5.22225 54.4 5.18225C54.26 5.13225 54.01 5.11224 53.66 5.11224H52.68V6.59222H52.67ZM52.67 8.86224H53.89C54.1 8.86224 54.25 8.86222 54.33 8.84222C54.48 8.81222 54.6 8.77225 54.7 8.71225C54.8 8.65225 54.88 8.56223 54.95 8.44223C55.01 8.32223 55.05 8.18223 55.05 8.03223C55.05 7.85223 55 7.69225 54.91 7.55225C54.82 7.41225 54.69 7.32225 54.52 7.27225C54.35 7.22225 54.12 7.19223 53.8 7.19223H52.67V8.88223V8.86224Z" fill="#094160"/>
<path d="M56.0699 9.44223L57.95 4.53223H58.65L60.65 9.44223H59.9099L59.34 7.95224H57.3L56.7599 9.44223H56.0699ZM57.4799 7.42224H59.14L58.6299 6.06223C58.4699 5.65223 58.36 5.31224 58.28 5.04224C58.22 5.35224 58.13 5.67224 58.02 5.98224L57.4799 7.42224Z" fill="#094160"/>
<path d="M62.03 9.44223V7.36224L60.15 4.53223H60.94L61.9 6.01224C62.08 6.29224 62.24 6.56222 62.4 6.84222C62.55 6.58222 62.72 6.29223 62.93 5.97223L63.88 4.53223H64.63L62.68 7.36224V9.44223H62.03Z" fill="#094160"/>
<path d="M68.7 7.7226L69.35 7.8826C69.21 8.4126 68.97 8.8226 68.62 9.1026C68.27 9.3826 67.84 9.52261 67.33 9.52261C66.82 9.52261 66.38 9.41261 66.04 9.20261C65.7 8.99261 65.46 8.6726 65.29 8.2626C65.12 7.8526 65.03 7.4126 65.03 6.9426C65.03 6.4326 65.13 5.9826 65.32 5.6026C65.51 5.2226 65.79 4.9326 66.15 4.7326C66.51 4.5326 66.9 4.43262 67.34 4.43262C67.83 4.43262 68.24 4.55261 68.57 4.80261C68.9 5.05261 69.14 5.40261 69.27 5.86261L68.63 6.0126C68.52 5.6526 68.35 5.3926 68.14 5.2326C67.92 5.07261 67.65 4.99261 67.33 4.99261C66.95 4.99261 66.64 5.0826 66.39 5.2626C66.14 5.4426 65.96 5.68261 65.86 5.99261C65.76 6.29261 65.71 6.61262 65.71 6.93262C65.71 7.35262 65.77 7.71261 65.89 8.02261C66.01 8.33261 66.2 8.5626 66.46 8.7226C66.72 8.8726 66.99 8.95261 67.29 8.95261C67.65 8.95261 67.96 8.85261 68.21 8.64261C68.46 8.43261 68.63 8.12262 68.72 7.71262L68.7 7.7226Z" fill="#094160"/>
<path d="M69.6 9.44223L71.48 4.53223H72.18L74.18 9.44223H73.44L72.87 7.95224H70.83L70.29 9.44223H69.6ZM71.01 7.42224H72.67L72.16 6.06223C72 5.65223 71.89 5.31224 71.81 5.04224C71.75 5.35224 71.66 5.67224 71.55 5.98224L71.01 7.42224Z" fill="#094160"/>
<path d="M74.6899 9.44223V4.53223H75.3499L77.92 8.38223V4.53223H78.5399V9.44223H77.8799L75.31 5.58224V9.44223H74.6899Z" fill="#094160"/>
<path d="M81.53 9.44223V4.53223H83.7C84.14 4.53223 84.47 4.57223 84.69 4.66223C84.92 4.75223 85.1 4.90223 85.23 5.13223C85.37 5.35223 85.43 5.60222 85.43 5.87222C85.43 6.22222 85.32 6.51223 85.09 6.75223C84.87 6.99223 84.52 7.14225 84.05 7.21225C84.22 7.29225 84.35 7.37224 84.44 7.45224C84.63 7.62224 84.81 7.84223 84.98 8.10223L85.83 9.44223H85.02L84.37 8.42224C84.18 8.13224 84.03 7.90225 83.9 7.74225C83.78 7.58225 83.67 7.47223 83.57 7.41223C83.47 7.35223 83.37 7.30223 83.27 7.28223C83.2 7.26223 83.08 7.26224 82.91 7.26224H82.16V9.44223H81.51H81.53ZM82.18 6.70224H83.57C83.87 6.70224 84.1 6.67224 84.26 6.61224C84.42 6.55224 84.55 6.45224 84.64 6.32224C84.73 6.18224 84.77 6.04223 84.77 5.88223C84.77 5.65223 84.69 5.46223 84.52 5.31223C84.35 5.16223 84.09 5.09222 83.72 5.09222H82.17V6.71225L82.18 6.70224Z" fill="#094160"/>
<path d="M86.4699 9.44223V4.53223H90V5.11224H87.11V6.61224H89.81V7.19223H87.11V8.86224H90.11V9.44223H86.46H86.4699Z" fill="#094160"/>
<path d="M90.79 7.8624L91.4001 7.81238C91.4301 8.06238 91.5 8.26238 91.6 8.41238C91.7 8.56238 91.8701 8.69239 92.0901 8.79239C92.3101 8.89239 92.5601 8.94238 92.8401 8.94238C93.0901 8.94238 93.3001 8.9024 93.4901 8.8324C93.6801 8.7624 93.82 8.66238 93.91 8.53238C94 8.40238 94.05 8.2624 94.05 8.1124C94.05 7.9624 94.01 7.8224 93.92 7.7124C93.83 7.6024 93.68 7.50239 93.48 7.42239C93.35 7.37239 93.06 7.2924 92.61 7.1824C92.16 7.0724 91.85 6.97238 91.67 6.87238C91.44 6.75238 91.2601 6.60238 91.1501 6.41238C91.0401 6.23238 90.98 6.0224 90.98 5.8024C90.98 5.5524 91.05 5.32239 91.19 5.10239C91.33 4.88239 91.53 4.7224 91.8 4.6124C92.07 4.5024 92.37 4.44238 92.7 4.44238C93.06 4.44238 93.38 4.50238 93.66 4.62238C93.94 4.74238 94.15 4.9124 94.3 5.1424C94.45 5.3724 94.53 5.63238 94.54 5.91238L93.92 5.9624C93.89 5.6524 93.77 5.42239 93.58 5.26239C93.39 5.10239 93.1 5.0224 92.73 5.0224C92.36 5.0224 92.0501 5.0924 91.8701 5.2424C91.6901 5.3824 91.6 5.56239 91.6 5.76239C91.6 5.94239 91.66 6.08239 91.79 6.20239C91.91 6.31239 92.2401 6.4324 92.7701 6.5524C93.3001 6.6724 93.66 6.7724 93.85 6.8624C94.13 6.9924 94.34 7.1624 94.48 7.3624C94.62 7.5624 94.6801 7.79238 94.6801 8.06238C94.6801 8.33238 94.6101 8.5724 94.4601 8.8024C94.3101 9.0324 94.1 9.21238 93.82 9.34238C93.54 9.47238 93.23 9.53238 92.88 9.53238C92.44 9.53238 92.0701 9.47238 91.7701 9.34238C91.4701 9.21238 91.24 9.02239 91.07 8.76239C90.9 8.50239 90.81 8.21239 90.8 7.88239L90.79 7.8624Z" fill="#094160"/>
<path d="M95.5601 9.44223V4.53223H97.4001C97.7201 4.53223 97.97 4.55224 98.14 4.58224C98.38 4.62224 98.5801 4.70223 98.7401 4.81223C98.9001 4.92223 99.03 5.08223 99.13 5.28223C99.23 5.48223 99.2801 5.71224 99.2801 5.95224C99.2801 6.37224 99.15 6.72224 98.88 7.01224C98.62 7.30224 98.14 7.44223 97.45 7.44223H96.2V9.44223H95.55H95.5601ZM96.2101 6.86224H97.47C97.89 6.86224 98.19 6.78223 98.36 6.63223C98.54 6.47223 98.6201 6.25223 98.6201 5.97223C98.6201 5.76223 98.5701 5.59223 98.4601 5.44223C98.3601 5.29223 98.22 5.20225 98.05 5.15225C97.94 5.12225 97.74 5.11224 97.45 5.11224H96.2V6.86224H96.2101Z" fill="#094160"/>
<path d="M103.33 4.53223H103.98V7.37222C103.98 7.86222 103.92 8.26225 103.81 8.55225C103.7 8.84225 103.5 9.08224 103.21 9.26224C102.92 9.44224 102.54 9.53223 102.07 9.53223C101.6 9.53223 101.24 9.45224 100.95 9.29224C100.66 9.13224 100.45 8.90223 100.33 8.60223C100.21 8.30223 100.14 7.89222 100.14 7.37222V4.53223H100.79V7.36224C100.79 7.79224 100.83 8.10225 100.91 8.30225C100.99 8.50225 101.12 8.66225 101.32 8.77225C101.51 8.88225 101.75 8.93225 102.03 8.93225C102.51 8.93225 102.85 8.82224 103.05 8.61224C103.25 8.39224 103.35 7.98224 103.35 7.36224V4.53223H103.33Z" fill="#094160"/>
<path d="M105.02 9.44223V4.53223H106.85C107.22 4.53223 107.52 4.58225 107.75 4.68225C107.98 4.78225 108.15 4.93224 108.28 5.14224C108.41 5.35224 108.47 5.56224 108.47 5.79224C108.47 6.00224 108.41 6.20223 108.3 6.38223C108.19 6.56223 108.02 6.71224 107.79 6.83224C108.09 6.92224 108.31 7.07223 108.47 7.28223C108.63 7.49223 108.71 7.74225 108.71 8.02225C108.71 8.25225 108.66 8.46223 108.57 8.66223C108.47 8.86223 108.35 9.01222 108.21 9.12222C108.07 9.23222 107.89 9.31224 107.67 9.36224C107.46 9.41224 107.19 9.44223 106.88 9.44223H105.02ZM105.67 6.59222H106.73C107.02 6.59222 107.22 6.57223 107.35 6.53223C107.51 6.48223 107.64 6.40224 107.72 6.29224C107.8 6.18224 107.85 6.03224 107.85 5.86224C107.85 5.70224 107.81 5.55225 107.73 5.43225C107.65 5.31225 107.54 5.22225 107.4 5.18225C107.26 5.13225 107.01 5.11224 106.66 5.11224H105.68V6.59222H105.67ZM105.67 8.86224H106.89C107.1 8.86224 107.25 8.86222 107.33 8.84222C107.48 8.81222 107.6 8.77225 107.7 8.71225C107.8 8.65225 107.88 8.56223 107.95 8.44223C108.01 8.32223 108.05 8.18223 108.05 8.03223C108.05 7.85223 108 7.69225 107.91 7.55225C107.82 7.41225 107.69 7.32225 107.52 7.27225C107.35 7.22225 107.12 7.19223 106.8 7.19223H105.67V8.88223V8.86224Z" fill="#094160"/>
<path d="M109.58 9.44223V4.53223H110.23V8.86224H112.64V9.44223H109.59H109.58Z" fill="#094160"/>
<path d="M113.47 4.23242V3.48242H114.21V4.23242H113.47ZM113.51 9.44241V4.53241H114.16V9.44241H113.51Z" fill="#094160"/>
<path d="M115.27 9.44223V4.53223H115.92V6.96225L118.35 4.53223H119.23L117.18 6.52225L119.32 9.44223H118.47L116.73 6.95224L115.93 7.73224V9.43225H115.28L115.27 9.44223Z" fill="#094160"/>
<path d="M119.32 9.44223L121.2 4.53223H121.9L123.9 9.44223H123.16L122.59 7.95224H120.55L120.01 9.44223H119.32ZM120.73 7.42224H122.39L121.88 6.06223C121.72 5.65223 121.61 5.31224 121.53 5.04224C121.47 5.35224 121.38 5.67224 121.27 5.98224L120.73 7.42224Z" fill="#094160"/>
<path d="M124.19 7.8624L124.8 7.81238C124.83 8.06238 124.9 8.26238 125 8.41238C125.1 8.56238 125.27 8.69239 125.49 8.79239C125.71 8.89239 125.96 8.94238 126.24 8.94238C126.49 8.94238 126.7 8.9024 126.89 8.8324C127.08 8.7624 127.22 8.66238 127.31 8.53238C127.4 8.40238 127.45 8.2624 127.45 8.1124C127.45 7.9624 127.41 7.8224 127.32 7.7124C127.23 7.6024 127.08 7.50239 126.88 7.42239C126.75 7.37239 126.46 7.2924 126.01 7.1824C125.56 7.0724 125.25 6.97238 125.07 6.87238C124.84 6.75238 124.66 6.60238 124.55 6.41238C124.44 6.23238 124.38 6.0224 124.38 5.8024C124.38 5.5524 124.45 5.32239 124.59 5.10239C124.73 4.88239 124.93 4.7224 125.2 4.6124C125.47 4.5024 125.77 4.44238 126.1 4.44238C126.46 4.44238 126.78 4.50238 127.06 4.62238C127.34 4.74238 127.55 4.9124 127.7 5.1424C127.85 5.3724 127.93 5.63238 127.94 5.91238L127.32 5.9624C127.29 5.6524 127.17 5.42239 126.98 5.26239C126.79 5.10239 126.5 5.0224 126.13 5.0224C125.76 5.0224 125.45 5.0924 125.27 5.2424C125.09 5.3824 125 5.56239 125 5.76239C125 5.94239 125.06 6.08239 125.19 6.20239C125.31 6.31239 125.64 6.4324 126.17 6.5524C126.7 6.6724 127.06 6.7724 127.25 6.8624C127.53 6.9924 127.74 7.1624 127.88 7.3624C128.02 7.5624 128.08 7.79238 128.08 8.06238C128.08 8.33238 128.01 8.5724 127.86 8.8024C127.71 9.0324 127.5 9.21238 127.22 9.34238C126.94 9.47238 126.63 9.53238 126.28 9.53238C125.84 9.53238 125.47 9.47238 125.17 9.34238C124.87 9.21238 124.64 9.02239 124.47 8.76239C124.3 8.50239 124.21 8.21239 124.2 7.88239L124.19 7.8624Z" fill="#094160"/>
<path d="M129.07 9.44223V4.53223H129.72V9.44223H129.07Z" fill="#094160"/>
<path d="M130.86 9.44223V4.53223H131.52L134.09 8.38223V4.53223H134.71V9.44223H134.05L131.48 5.58224V9.44223H130.86Z" fill="#094160"/>
<path d="M135.9 9.44223V4.53223H136.55V9.44223H135.9Z" fill="#094160"/>
<path d="M137.68 9.44223V4.53223H138.34L140.91 8.38223V4.53223H141.53V9.44223H140.87L138.3 5.58224V9.44223H137.68Z" fill="#094160"/>
<path d="M32.72 24.4626V14.3525H34.73L37.12 21.5125C37.34 22.1825 37.5 22.6825 37.6 23.0125C37.71 22.6425 37.89 22.1025 38.14 21.3925L40.55 14.3525H42.34V24.4626H41.05V16.0025L38.12 24.4626H36.92L34.01 15.8525V24.4626H32.72Z" fill="#094160"/>
<path d="M53.3601 19.2924C53.3901 20.8224 53.0301 22.0924 52.2701 23.0824C51.4901 24.1124 50.3101 24.6324 48.7201 24.6324C47.1301 24.6324 45.9501 24.1224 45.1701 23.0824C44.4401 22.1124 44.0801 20.8524 44.0801 19.2924V18.6424H51.9201C51.8601 17.6324 51.5701 16.8323 51.0301 16.2523C50.4601 15.6423 49.6801 15.3423 48.6901 15.3423C47.2401 15.3423 46.3201 16.0524 45.9401 17.4624L44.6301 17.1223C44.8901 16.1623 45.3801 15.4324 46.1101 14.9124C46.8101 14.4224 47.6701 14.1724 48.6701 14.1724C49.5901 14.1724 50.4101 14.4024 51.1401 14.8524C51.8901 15.3124 52.4501 15.9524 52.8201 16.7724C53.1501 17.4824 53.3201 18.3224 53.3401 19.2924H53.3601ZM51.9701 19.8423H45.4501C45.5001 20.9723 45.8101 21.8724 46.3901 22.5224C46.9701 23.1824 47.7401 23.5124 48.7101 23.5124C49.6801 23.5124 50.4501 23.1824 51.0301 22.5224C51.6101 21.8624 51.9201 20.9723 51.9701 19.8423Z" fill="#094160"/>
<path d="M55.09 24.4626V14.3525H59.56C60.46 14.3525 61.14 14.4425 61.61 14.6225C62.08 14.8025 62.4499 15.1226 62.7299 15.5826C63.01 16.0426 63.15 16.5525 63.15 17.1025C63.15 17.8225 62.92 18.4225 62.46 18.9125C62 19.4025 61.2799 19.7125 60.3199 19.8525C60.6699 20.0225 60.94 20.1925 61.12 20.3525C61.51 20.7125 61.88 21.1625 62.2299 21.7025L63.9799 24.4525H62.3L60.9699 22.3525C60.5799 21.7425 60.2599 21.2826 60.0099 20.9626C59.7599 20.6426 59.53 20.4125 59.33 20.2825C59.13 20.1525 58.9299 20.0625 58.7199 20.0125C58.5699 19.9825 58.3199 19.9626 57.9799 19.9626H56.43V24.4525H55.0999L55.09 24.4626ZM56.43 18.8125H59.3C59.91 18.8125 60.3899 18.7525 60.7299 18.6225C61.07 18.4925 61.3399 18.2925 61.5099 18.0125C61.6899 17.7325 61.78 17.4325 61.78 17.1025C61.78 16.6225 61.6099 16.2325 61.2599 15.9225C60.9099 15.6125 60.37 15.4626 59.62 15.4626H56.43V18.8125Z" fill="#094160"/>
<path d="M65.1799 24.4626V14.3525H66.5099V19.3625L71.5099 14.3525H73.3199L69.0899 18.4525L73.4999 24.4626H71.7399L68.1499 19.3425L66.4999 20.9525V24.4525H65.1699L65.1799 24.4626Z" fill="#094160"/>
<path d="M83.5 19.2924C83.53 20.8224 83.17 22.0924 82.41 23.0824C81.63 24.1124 80.45 24.6324 78.86 24.6324C77.27 24.6324 76.09 24.1224 75.31 23.0824C74.58 22.1124 74.22 20.8524 74.22 19.2924V18.6424H82.06C82 17.6324 81.71 16.8323 81.17 16.2523C80.6 15.6423 79.82 15.3423 78.83 15.3423C77.38 15.3423 76.46 16.0524 76.08 17.4624L74.77 17.1223C75.03 16.1623 75.52 15.4324 76.25 14.9124C76.95 14.4224 77.81 14.1724 78.81 14.1724C79.73 14.1724 80.55 14.4024 81.28 14.8524C82.03 15.3124 82.59 15.9524 82.96 16.7724C83.29 17.4824 83.46 18.3224 83.48 19.2924H83.5ZM82.12 19.8423H75.6C75.65 20.9723 75.96 21.8724 76.54 22.5224C77.12 23.1824 77.89 23.5124 78.86 23.5124C79.83 23.5124 80.6 23.1824 81.18 22.5224C81.76 21.8624 82.07 20.9723 82.12 19.8423Z" fill="#094160"/>
<path d="M84.41 24.4626V23.2225L89.57 16.7426C89.94 16.2826 90.29 15.8825 90.61 15.5425H84.99V14.3525H92.21V15.5425L86.55 22.5526L85.94 23.2625H92.37V24.4525H84.4L84.41 24.4626Z" fill="#094160"/>
<path d="M93.95 13.7326V12.1826H95.4799V13.7326H93.95ZM94.0399 24.4626V14.3526H95.37V24.4626H94.0399Z" fill="#094160"/>
<path d="M101.58 24.4626V14.3525H105.36C106.13 14.3525 106.75 14.4525 107.21 14.6625C107.67 14.8725 108.04 15.1825 108.3 15.6025C108.56 16.0325 108.7 16.4726 108.7 16.9326C108.7 17.3626 108.58 17.7726 108.35 18.1526C108.12 18.5326 107.76 18.8425 107.29 19.0725C107.9 19.2525 108.37 19.5626 108.7 19.9926C109.03 20.4226 109.19 20.9326 109.19 21.5226C109.19 21.9926 109.09 22.4325 108.89 22.8425C108.69 23.2525 108.44 23.5625 108.15 23.7825C107.86 24.0025 107.49 24.1725 107.05 24.2825C106.61 24.3925 106.07 24.4525 105.42 24.4525H101.58V24.4626ZM102.92 18.6025H105.1C105.69 18.6025 106.12 18.5625 106.37 18.4825C106.71 18.3825 106.96 18.2125 107.14 17.9825C107.31 17.7525 107.4 17.4525 107.4 17.1025C107.4 16.7625 107.32 16.4726 107.16 16.2126C107 15.9526 106.77 15.7825 106.47 15.6925C106.17 15.6025 105.66 15.5526 104.94 15.5526H102.93V18.6125L102.92 18.6025ZM102.92 23.2726H105.43C105.86 23.2726 106.16 23.2525 106.34 23.2225C106.65 23.1625 106.9 23.0725 107.11 22.9425C107.32 22.8125 107.49 22.6225 107.62 22.3825C107.75 22.1325 107.82 21.8525 107.82 21.5325C107.82 21.1525 107.72 20.8326 107.53 20.5526C107.34 20.2726 107.07 20.0826 106.73 19.9626C106.39 19.8526 105.9 19.7925 105.26 19.7925H102.93V23.2726H102.92Z" fill="#094160"/>
<path d="M109.92 24.4626L113.79 14.3525H115.23L119.35 24.4626H117.83L116.65 21.4026H112.44L111.33 24.4626H109.91H109.92ZM112.83 20.3125H116.25L115.2 17.5125C114.88 16.6625 114.64 15.9625 114.48 15.4125C114.35 16.0625 114.17 16.7025 113.94 17.3425L112.83 20.3125Z" fill="#094160"/>
<path d="M120.4 24.4626V14.3525H121.77L127.06 22.2925V14.3525H128.34V24.4626H126.97L121.68 16.5125V24.4626H120.4Z" fill="#094160"/>
<path d="M130.53 24.4626V14.3525H131.86V19.3625L136.86 14.3525H138.67L134.44 18.4525L138.85 24.4626H137.09L133.5 19.3425L131.85 20.9525V24.4525H130.52L130.53 24.4626Z" fill="#094160"/>
<path d="M140.2 24.4626V14.3525H141.53V24.4626H140.2Z" fill="#094160"/>
<path d="M10.95 12.9724C11.12 15.2624 12.16 15.7724 12.48 15.7724C12.8 15.7724 12.93 15.5323 13.09 15.5323C13.25 15.5323 13.23 15.7324 13.53 15.7324C14.01 15.7324 14.65 14.7924 14.65 13.1624C14.65 10.5824 13.02 9.36236 13.18 7.42236C12.91 8.11236 12.77 8.85236 12.75 9.60236C12.75 11.5024 13.54 12.0024 13.54 13.9324C13.54 14.2524 13.46 14.9024 13.13 14.9124C12.58 14.9124 13.15 13.6524 13.15 12.7124C13.15 11.7724 12.34 10.5124 12.56 8.51236C10.66 10.8024 11.92 13.5924 12.04 13.8524C12.16 14.1124 12.31 14.3524 12.16 14.4724C12.01 14.5924 11.84 14.4724 11.74 14.2424C11.29 13.1524 11.17 11.9624 11.35 10.4724C10.4 11.9024 10.37 13.2924 11.02 14.4524C10.92 14.1024 10.77 13.4424 10.95 12.9724Z" fill="#094160"/>
<path d="M14.22 15.3322C14.69 14.9822 15.07 14.5422 15.34 14.0222C15.61 13.5022 15.75 12.9322 15.76 12.3522C15.76 10.7422 14.13 9.43219 13.86 8.49219C13.86 9.98219 14.88 10.9222 14.88 12.9222C14.88 14.7822 14.22 15.3222 14.22 15.3222V15.3322Z" fill="#094160"/>
<path d="M16.6 3.37222C16.68 3.40222 16.77 3.41225 16.85 3.40225C16.94 3.39225 17.01 3.35223 17.07 3.28223C17.13 3.22223 17.17 3.14223 17.19 3.06223C17.2 2.97223 17.19 2.89223 17.16 2.81223C17.13 2.73223 17.08 2.66222 17 2.62222C16.93 2.58222 16.85 2.55225 16.76 2.55225C16.67 2.55225 16.59 2.58222 16.52 2.62222C16.5 2.63222 16.48 2.65224 16.46 2.67224C16.44 2.69224 16.42 2.71224 16.41 2.73224C16.39 2.76224 16.38 2.78223 16.37 2.81223C16.32 2.92223 16.32 3.03224 16.37 3.14224C16.41 3.25224 16.5 3.33222 16.6 3.37222ZM16.45 2.82224C16.45 2.82224 16.49 2.74225 16.52 2.71225C16.53 2.70225 16.55 2.68224 16.57 2.67224C16.63 2.63224 16.69 2.61224 16.76 2.61224C16.82 2.61224 16.89 2.63223 16.94 2.66223C16.99 2.69223 17.03 2.74223 17.06 2.81223C17.08 2.87223 17.09 2.93223 17.08 3.00223C17.07 3.06223 17.04 3.12224 16.99 3.17224C16.94 3.22224 16.89 3.25224 16.82 3.26224C16.75 3.27224 16.68 3.26225 16.63 3.24225C16.55 3.21225 16.49 3.15224 16.46 3.07224C16.43 2.99224 16.43 2.90224 16.46 2.82224H16.45Z" fill="#094160"/>
<path d="M9.52004 20.7023C9.45004 20.6623 9.37005 20.6323 9.28005 20.6323C9.19005 20.6323 9.11003 20.6623 9.04003 20.7023C9.02003 20.7123 9.00004 20.7323 8.98004 20.7523C8.96004 20.7723 8.94005 20.7923 8.93005 20.8123C8.91005 20.8423 8.90004 20.8623 8.89004 20.8923C8.84004 21.0023 8.84004 21.1123 8.89004 21.2223C8.94004 21.3323 9.02005 21.4123 9.12005 21.4523C9.20005 21.4823 9.29005 21.4923 9.37005 21.4823C9.46005 21.4723 9.53005 21.4323 9.59005 21.3623C9.65005 21.3023 9.69005 21.2223 9.71005 21.1423C9.72005 21.0523 9.71005 20.9723 9.68005 20.8923C9.65005 20.8123 9.60004 20.7423 9.52004 20.7023ZM9.57003 21.1023C9.56003 21.1623 9.53004 21.2223 9.48004 21.2723C9.43004 21.3223 9.38005 21.3523 9.31005 21.3623C9.24005 21.3723 9.17005 21.3623 9.12005 21.3423C9.04005 21.3123 8.98004 21.2523 8.95004 21.1723C8.92004 21.0923 8.92004 21.0023 8.95004 20.9223C8.97004 20.8823 8.99004 20.8423 9.02004 20.8123C9.03004 20.8023 9.05003 20.7823 9.07003 20.7723C9.13003 20.7323 9.19003 20.7123 9.26003 20.7123C9.32003 20.7123 9.39003 20.7323 9.44003 20.7623C9.49003 20.7923 9.53005 20.8423 9.56005 20.9123C9.58005 20.9723 9.59004 21.0323 9.58004 21.1023H9.57003Z" fill="#094160"/>
<path d="M21.9001 8.67206C21.9801 8.70206 22.0701 8.71206 22.1501 8.70206C22.2401 8.69206 22.3101 8.65206 22.3701 8.58206C22.4301 8.52206 22.4701 8.44206 22.4901 8.36206C22.5001 8.27206 22.4901 8.19206 22.4601 8.11206C22.4301 8.03206 22.3801 7.96206 22.3001 7.92206C22.2301 7.88206 22.1501 7.85205 22.0601 7.85205C21.9701 7.85205 21.8901 7.88206 21.8201 7.92206C21.8001 7.93206 21.7801 7.95205 21.7601 7.97205C21.7401 7.99205 21.7201 8.01204 21.7101 8.03204C21.6901 8.06204 21.6801 8.08206 21.6701 8.11206C21.6201 8.22206 21.6201 8.33205 21.6701 8.44205C21.7201 8.55205 21.8001 8.63206 21.9001 8.67206ZM21.7401 8.12204C21.7401 8.12204 21.7801 8.04205 21.8101 8.01205C21.8201 8.00205 21.8401 7.98205 21.8601 7.97205C21.9201 7.93205 21.9801 7.91205 22.0501 7.91205C22.1101 7.91205 22.1801 7.93207 22.2301 7.96207C22.2801 7.99207 22.3201 8.04206 22.3501 8.11206C22.3701 8.17206 22.3801 8.23206 22.3701 8.30206C22.3601 8.36206 22.3301 8.42205 22.2801 8.47205C22.2301 8.52205 22.1801 8.55204 22.1101 8.56204C22.0401 8.57204 21.9701 8.56205 21.9201 8.54205C21.8401 8.51205 21.7801 8.45204 21.7501 8.37204C21.7201 8.29204 21.7201 8.20204 21.7501 8.12204H21.7401Z" fill="#094160"/>
<path d="M3.57998 15.9323C3.61998 16.0423 3.70999 16.1223 3.80999 16.1623C3.88999 16.1923 3.97999 16.2023 4.05999 16.1923C4.14999 16.1823 4.21999 16.1423 4.27999 16.0723C4.33999 16.0123 4.37999 15.9323 4.39999 15.8523C4.40999 15.7623 4.39999 15.6823 4.36999 15.6023C4.33999 15.5223 4.28999 15.4523 4.20999 15.4123C4.13999 15.3723 4.05996 15.3423 3.96996 15.3423C3.87996 15.3423 3.79997 15.3723 3.72997 15.4123C3.70997 15.4223 3.68998 15.4423 3.66998 15.4623C3.66998 15.4623 3.62999 15.5023 3.61999 15.5223C3.59999 15.5523 3.58998 15.5723 3.57998 15.6023C3.52998 15.7123 3.52998 15.8223 3.57998 15.9323ZM3.65997 15.6123C3.65997 15.6123 3.69997 15.5323 3.72997 15.5023C3.73997 15.4923 3.75999 15.4723 3.77999 15.4623C3.83999 15.4223 3.89996 15.4023 3.96996 15.4023C4.02996 15.4023 4.09999 15.4223 4.14999 15.4523C4.19999 15.4823 4.23998 15.5323 4.26998 15.6023C4.28998 15.6623 4.29997 15.7223 4.28997 15.7923C4.27997 15.8523 4.24998 15.9123 4.19998 15.9623C4.14998 16.0123 4.09999 16.0423 4.02999 16.0523C3.95999 16.0623 3.88999 16.0523 3.83999 16.0323C3.75999 16.0023 3.69998 15.9423 3.66998 15.8623C3.63998 15.7823 3.63998 15.6923 3.66998 15.6123H3.65997Z" fill="#094160"/>
<path d="M22.3101 15.4025C22.2401 15.3625 22.1601 15.3325 22.0701 15.3325C21.9801 15.3325 21.9001 15.3625 21.8301 15.4025C21.8101 15.4125 21.7901 15.4325 21.7701 15.4525C21.7501 15.4725 21.7301 15.4925 21.7201 15.5125C21.7001 15.5425 21.6901 15.5625 21.6801 15.5925C21.6301 15.7025 21.6301 15.8125 21.6801 15.9225C21.7201 16.0325 21.8101 16.1125 21.9101 16.1525C21.9901 16.1825 22.0801 16.1925 22.1601 16.1825C22.2501 16.1725 22.3201 16.1325 22.3801 16.0625C22.4401 16.0025 22.4801 15.9225 22.5001 15.8425C22.5101 15.7525 22.5001 15.6725 22.4701 15.5925C22.4401 15.5125 22.3901 15.4425 22.3101 15.4025ZM22.3601 15.8025C22.3501 15.8625 22.3201 15.9225 22.2701 15.9725C22.2201 16.0225 22.1701 16.0525 22.1001 16.0625C22.0301 16.0725 21.9601 16.0625 21.9101 16.0425C21.8301 16.0125 21.7701 15.9525 21.7401 15.8725C21.7101 15.7925 21.7101 15.7025 21.7401 15.6225C21.7601 15.5825 21.7801 15.5425 21.8101 15.5125C21.8201 15.5025 21.8401 15.4825 21.8601 15.4725C21.9201 15.4325 21.9801 15.4125 22.0501 15.4125C22.1101 15.4125 22.1801 15.4325 22.2301 15.4625C22.2801 15.4925 22.3201 15.5425 22.3501 15.6125C22.3701 15.6725 22.3801 15.7325 22.3701 15.8025H22.3601Z" fill="#094160"/>
<path d="M3.80999 8.67206C3.88999 8.70206 3.97999 8.71206 4.05999 8.70206C4.14999 8.69206 4.21999 8.65206 4.27999 8.58206C4.33999 8.51206 4.37999 8.44206 4.39999 8.36206C4.40999 8.27206 4.39999 8.19206 4.36999 8.11206C4.33999 8.03206 4.28999 7.96206 4.20999 7.92206C4.13999 7.88206 4.05996 7.85205 3.96996 7.85205C3.87996 7.85205 3.79997 7.88206 3.72997 7.92206C3.70997 7.93206 3.68998 7.95205 3.66998 7.97205C3.64998 7.99205 3.62999 8.01204 3.61999 8.03204C3.59999 8.06204 3.58998 8.08206 3.57998 8.11206C3.52998 8.22206 3.52998 8.33205 3.57998 8.44205C3.61998 8.55205 3.70999 8.63206 3.80999 8.67206ZM3.65997 8.12204C3.65997 8.12204 3.69997 8.04205 3.72997 8.01205C3.73997 8.00205 3.75999 7.98205 3.77999 7.97205C3.83999 7.93205 3.89996 7.91205 3.96996 7.91205C4.02996 7.91205 4.09999 7.93207 4.14999 7.96207C4.19999 7.99207 4.23998 8.04206 4.26998 8.11206C4.28998 8.17206 4.29997 8.23206 4.28997 8.30206C4.27997 8.36206 4.24998 8.42205 4.19998 8.47205C4.14998 8.52205 4.09999 8.55204 4.02999 8.56204C3.95999 8.57204 3.88999 8.56205 3.83999 8.54205C3.75999 8.51205 3.69998 8.45204 3.66998 8.37204C3.63998 8.29204 3.63998 8.20204 3.66998 8.12204H3.65997Z" fill="#094160"/>
<path d="M17.01 20.7023C16.94 20.6623 16.86 20.6323 16.77 20.6323C16.68 20.6323 16.6001 20.6623 16.5301 20.7023C16.5101 20.7123 16.49 20.7323 16.47 20.7523C16.47 20.7523 16.43 20.7923 16.42 20.8123C16.4 20.8423 16.39 20.8623 16.38 20.8923C16.33 21.0023 16.33 21.1123 16.38 21.2223C16.42 21.3323 16.51 21.4123 16.61 21.4523C16.69 21.4823 16.78 21.4923 16.86 21.4823C16.94 21.4723 17.02 21.4323 17.08 21.3623C17.14 21.3023 17.18 21.2223 17.2 21.1423C17.21 21.0523 17.2 20.9723 17.17 20.8923C17.14 20.8123 17.09 20.7423 17.01 20.7023ZM17.07 21.1023C17.06 21.1623 17.03 21.2223 16.98 21.2723C16.93 21.3223 16.8801 21.3523 16.8101 21.3623C16.7401 21.3723 16.6701 21.3623 16.6201 21.3423C16.5401 21.3123 16.48 21.2523 16.45 21.1723C16.42 21.0923 16.42 21.0023 16.45 20.9223C16.47 20.8823 16.49 20.8423 16.52 20.8123C16.53 20.8023 16.55 20.7823 16.57 20.7723C16.63 20.7323 16.69 20.7123 16.76 20.7123C16.82 20.7123 16.89 20.7323 16.94 20.7623C16.99 20.7923 17.0301 20.8423 17.0601 20.9123C17.0801 20.9723 17.09 21.0323 17.08 21.1023H17.07Z" fill="#094160"/>
<path d="M9.11004 3.37222C9.19004 3.40222 9.28004 3.41225 9.36004 3.40225C9.44004 3.39225 9.52004 3.35223 9.58004 3.28223C9.64004 3.22223 9.68004 3.14223 9.70004 3.06223C9.71004 2.97223 9.70004 2.89223 9.67004 2.81223C9.64004 2.73223 9.59003 2.66222 9.51003 2.62222C9.44003 2.58222 9.36004 2.55225 9.27004 2.55225C9.18004 2.55225 9.10005 2.58222 9.03005 2.62222C9.01005 2.63222 8.99003 2.65224 8.97003 2.67224C8.97003 2.67224 8.93004 2.71224 8.92004 2.73224C8.90004 2.76224 8.89003 2.78223 8.88003 2.81223C8.83003 2.92223 8.83003 3.03224 8.88003 3.14224C8.92003 3.25224 9.01004 3.33222 9.11004 3.37222ZM8.95004 2.82224C8.95004 2.82224 8.99004 2.74225 9.02004 2.71225C9.03004 2.70225 9.05003 2.68224 9.07003 2.67224C9.13003 2.63224 9.19003 2.61224 9.26003 2.61224C9.32003 2.61224 9.39003 2.63223 9.44003 2.66223C9.49003 2.69223 9.53005 2.74223 9.56005 2.81223C9.58005 2.87223 9.59004 2.93223 9.58004 3.00223C9.57004 3.06223 9.54005 3.12224 9.49005 3.17224C9.44005 3.22224 9.39003 3.25224 9.32003 3.26224C9.25003 3.27224 9.18003 3.26225 9.13003 3.24225C9.05003 3.21225 8.99005 3.15224 8.96005 3.07224C8.93005 2.99224 8.93005 2.90224 8.96005 2.82224H8.95004Z" fill="#094160"/>
<path d="M24.68 17.6423C24.89 17.3023 25.06 16.9223 25.23 16.4323V16.3523H25.21C25.21 16.3523 25.2 16.3523 25.19 16.3523H25.12V16.3823C25.12 16.3823 25.12 16.3823 25.12 16.4023C24.97 16.8423 24.83 17.1923 24.69 17.4723C24.64 17.5323 24.55 17.6423 24.45 17.7223C24.53 17.5823 24.58 17.4423 24.6 17.2823C24.82 16.8823 24.99 16.4523 25.12 16.0023V15.9823C25.12 15.9823 25.12 15.9623 25.12 15.9523V15.9223H25.09C25.09 15.9223 25.08 15.9223 25.07 15.9223H25.06C25.06 15.9223 25.04 15.9223 25.03 15.9223H25V15.9523V15.9723C24.91 16.2923 24.8 16.6123 24.65 16.9223C24.65 16.8223 24.65 16.7223 24.65 16.6223C24.83 16.2423 24.97 15.8423 25.05 15.4123C25.05 15.4123 25.05 15.3823 25.05 15.3723V15.3423H25.02C25.02 15.3423 25.01 15.3423 25 15.3423C25 15.3423 24.97 15.3423 24.96 15.3623C24.96 15.3623 24.94 15.3823 24.94 15.4023C24.87 15.7223 24.78 16.0323 24.66 16.3323C24.66 16.2923 24.66 16.2523 24.66 16.2123V16.0723C24.81 15.5923 24.92 15.0923 25.01 14.5923C25.01 14.5923 25.01 14.5523 24.99 14.5323L24.97 14.5123H24.95C24.95 14.5123 24.92 14.5123 24.91 14.5323C24.91 14.5323 24.89 14.5523 24.89 14.5723C24.79 15.1223 24.66 15.6623 24.5 16.1623C24.46 16.2223 24.42 16.2823 24.38 16.3323C24.35 16.3623 24.33 16.3823 24.32 16.4023C24.3 16.4223 24.29 16.4523 24.27 16.4823C24.38 16.1123 24.51 15.6723 24.59 15.3023C24.59 15.3023 24.59 15.2723 24.57 15.2623C24.57 15.2623 24.55 15.2423 24.53 15.2423C24.53 15.2423 24.5 15.2423 24.49 15.2623C24.49 15.2623 24.47 15.2823 24.47 15.3023C24.39 15.7023 24.22 16.2923 24.01 16.9123C23.92 17.0523 23.85 17.2023 23.79 17.3623C23.79 17.2123 23.79 17.0623 23.83 16.9323C24.01 16.4423 24.18 15.9423 24.31 15.4323V15.4123C24.31 15.4123 24.31 15.3923 24.31 15.3823V15.3523H24.28C24.28 15.3523 24.27 15.3523 24.26 15.3523H24.25C24.25 15.3523 24.23 15.3523 24.22 15.3523H24.19V15.3823V15.4023C24.03 16.0123 23.83 16.6023 23.61 17.1623C23.61 17.1623 23.61 17.1723 23.61 17.1823C23.46 17.3923 23.34 17.6223 23.26 17.8523C23.26 17.5323 23.42 17.1023 23.52 16.8523C23.54 16.8123 23.55 16.7723 23.56 16.7323L23.51 16.7123C23.39 16.9923 23.4 16.9723 23.4 16.9723C23.4 16.9723 23.41 16.9623 23.44 16.9023C23.24 17.3223 23.01 17.7323 22.76 18.1123C23.91 16.2923 24.52 14.1823 24.52 12.0223C24.52 10.5223 24.22 9.03231 23.65 7.65231C23.07 6.26231 22.23 5.00229 21.17 3.94229C20.11 2.88229 18.85 2.04231 17.46 1.46231C16.08 0.892311 14.59 0.592285 13.09 0.592285C10.83 0.592285 8.62002 1.26231 6.74002 2.52231C4.86002 3.78231 3.39003 5.56231 2.53003 7.65231C1.66003 9.74231 1.44 12.0423 1.88 14.2623C1.94 14.5523 2.01002 14.8323 2.08002 15.1123C1.97002 14.9723 1.78002 14.7623 1.55002 14.7623C1.49002 14.7623 1.43001 14.7823 1.39001 14.8123C1.34001 14.8323 1.30001 14.8723 1.26001 14.9223C1.14001 15.0523 1.09002 15.1923 1.11002 15.3523C1.13002 15.6423 1.37002 15.8923 1.43002 15.9323C1.46002 15.9623 1.48002 15.9923 1.49002 16.0223C1.50002 16.0623 1.51003 16.1023 1.50003 16.1323C1.50003 16.1823 1.45002 16.2223 1.36002 16.2623C1.28002 16.2923 1.22002 16.3323 1.15002 16.4023C1.09002 16.4723 1.06001 16.5523 1.04001 16.6223C1.03001 16.7123 1.04001 16.8123 1.07001 16.9123L1.10001 16.9723H1.02002H0.930023C0.810023 16.9723 0.700016 17.0023 0.610016 17.0723C0.590016 17.0923 0.570028 17.1123 0.560028 17.1423C0.560028 17.1623 0.560028 17.1923 0.560028 17.2223C0.590028 17.5223 0.94002 17.8023 1.02002 17.8623C1.02002 17.8823 1.02002 17.9123 1.02002 17.9323C1.02002 17.9623 1.04003 17.9923 1.06003 18.0223C1.08003 18.0523 1.11 18.0723 1.13 18.0923C1.15 18.1023 1.18002 18.1223 1.21002 18.1223C1.26002 18.1423 1.33002 18.1523 1.40002 18.1523C1.43002 18.1523 1.45001 18.1523 1.48001 18.1523C1.48001 18.1523 1.50002 18.1523 1.52002 18.1523C1.46002 18.2723 1.46002 18.4723 1.52002 18.6723C1.58002 18.8623 1.80002 19.3023 2.43002 19.3623C2.45002 19.3623 2.47002 19.3623 2.49002 19.3623C2.25002 19.7423 2.49001 20.0023 2.67001 20.2023C2.75001 20.2923 2.82001 20.3723 2.82001 20.4323C2.82001 20.4923 2.75003 20.5723 2.62003 20.6523C2.60003 20.6523 2.59001 20.6723 2.57001 20.6823C2.44001 20.7523 2.29001 20.8323 2.29001 21.0423C2.29001 21.2823 2.42002 21.5723 3.05002 21.5723C3.32002 21.5723 3.44 21.6123 3.44 21.7023C3.44 21.7223 3.43001 21.7723 3.29001 21.8623L3.26001 21.8823C3.16001 21.9523 3.04001 22.0323 3.04001 22.1723C3.04001 22.2523 3.07002 22.5123 3.49002 22.6623L3.58002 22.6923L3.50003 22.7323C3.50003 22.7323 3.41003 22.7823 3.37003 22.8323C3.33003 22.8823 3.31003 22.9323 3.31003 22.9823C3.31003 23.1323 3.43001 23.2623 3.67001 23.3623C3.85001 23.4323 4.02 23.4623 4.19 23.4823L4.22 23.5323C4.22 23.5323 4.26001 23.5723 4.29001 23.5923C4.32001 23.6023 4.35 23.6123 4.38 23.6223H4.42001V23.6623C4.42001 23.6623 4.43001 23.7623 4.45001 23.8123C4.47001 23.8523 4.50001 23.9023 4.54001 23.9323C4.62001 24.0223 4.73001 24.1123 4.85001 24.2023L4.95001 24.2723H4.83002C4.47002 24.3023 4.15001 24.5223 4.10001 24.7923C4.09001 24.8623 4.09001 24.9223 4.10001 24.9923C4.11001 25.0523 4.14002 25.1123 4.18002 25.1823C4.29002 25.3123 4.45002 25.3923 4.61002 25.4023H4.65002C4.77002 25.4023 4.87001 25.3823 4.95001 25.3523C5.12001 25.3123 5.16001 25.3023 5.23001 25.5223C5.30001 25.7123 5.35001 25.8823 5.57001 25.8823H5.64001C5.59001 26.0423 5.46 26.5823 5.72 26.8123C5.77 26.8423 5.82002 26.8523 5.86002 26.8523C6.05002 26.8523 6.29 26.6023 6.41 26.4423C6.63 26.1723 6.81003 26.1623 6.81003 26.1623H6.84003C6.92003 26.2223 7.01003 26.2523 7.09003 26.2623C7.14003 26.2723 7.17001 26.2923 7.20001 26.3123C7.23001 26.3323 7.25001 26.3723 7.26001 26.4123C7.27001 26.4523 7.26001 26.5023 7.26001 26.5323C7.26001 26.5723 7.23 26.6023 7.19 26.6323C7.07 26.7623 7.00003 26.9323 7.00003 27.1123C7.00003 27.1823 7.00003 27.2623 7.03003 27.3523C7.06003 27.4323 7.10002 27.5023 7.15002 27.5523C7.21002 27.6123 7.27003 27.6523 7.34003 27.6723C7.41003 27.7023 7.49003 27.7123 7.56003 27.7123C7.66003 27.7123 7.76003 27.7123 7.84003 27.6623C7.94003 27.6223 8.01003 27.5623 8.06003 27.5023C8.18003 27.3623 8.24001 27.1823 8.23001 27.0023C8.23001 26.9723 8.23001 26.9423 8.23001 26.9223C8.23001 26.9023 8.25002 26.8723 8.27002 26.8423C8.27002 26.8323 8.29003 26.8223 8.31003 26.8223C8.33003 26.8223 8.35002 26.8123 8.36002 26.8123C8.40002 26.8123 8.43 26.8223 8.47 26.8423C8.57 26.9323 8.69001 26.9823 8.82001 26.9823C8.91001 26.9823 9.00002 26.9523 9.08002 26.8923C9.14002 26.8523 9.19 26.7923 9.22 26.7123L9.24002 26.6523L9.28003 26.6923C9.28003 26.6923 9.36001 26.7723 9.42001 26.7923C9.48001 26.8223 9.55001 26.8223 9.60001 26.8223C9.71001 26.8223 9.82 26.7923 9.91 26.7323L9.97 26.6923V26.7823C9.97 26.7823 9.98001 26.8623 10.01 26.9123C10.03 26.9523 10.06 26.9823 10.1 27.0123C10.16 27.0523 10.24 27.0623 10.31 27.0523C10.2 27.1223 10.08 27.1923 10.06 27.2123C10.05 27.2223 10.03 27.2423 10.02 27.2723C10.02 27.2923 10.02 27.3223 10.02 27.3423C10.04 27.5123 10.33 27.5623 10.47 27.5623C10.53 27.5623 10.59 27.5623 10.64 27.5423C10.72 27.5223 10.79 27.4923 10.87 27.4523C10.87 27.4523 11.12 27.2723 11.42 27.0923C11.27 27.1923 11.12 27.2923 10.97 27.4123C10.94 27.4423 10.91 27.4723 10.89 27.5123C10.87 27.5623 10.87 27.6023 10.88 27.6423C10.93 27.8523 11.36 27.8623 11.37 27.8623C11.55 27.8623 11.9 27.7823 12.02 27.6723C12.02 27.6723 12.03 27.6623 12.04 27.6423C12.23 27.4323 12.45 27.2423 12.68 27.1023H12.7H12.72C12.88 27.1923 13.15 27.3523 13.39 27.4923C13.51 27.5623 13.63 27.6323 13.72 27.6823L13.8 27.7323L13.84 27.7523L13.88 27.7823C13.88 27.7823 13.96 27.8223 14.02 27.8323C14.1 27.8423 14.17 27.8423 14.25 27.8423C14.74 27.8423 15.07 27.6423 15.08 27.4623C15.08 27.4223 15.07 27.3823 15.05 27.3523C15.03 27.3223 15 27.3023 14.97 27.2823H14.96C14.77 27.1923 14.14 26.8923 13.62 26.6423L13.86 26.6623H13.9C14.19 26.7123 14.95 27.1623 15.18 27.3023H15.19C15.27 27.3423 15.37 27.3623 15.46 27.3623C15.65 27.3623 15.96 27.2823 15.99 27.1123C15.99 27.0623 15.99 27.0223 15.97 26.9723C15.95 26.9323 15.91 26.9023 15.86 26.8723L14.18 26.2023L14.2 26.1323C15.11 26.5223 16.06 26.8623 17.01 27.1523L16.97 27.1823C16.83 27.2923 16.48 27.5023 15.79 27.6023L15.6 27.6323L15.79 27.6723C16.01 27.7223 16.25 27.7423 16.5 27.7323C17.05 27.7223 17.58 27.5923 18.09 27.3523H18.11V27.3223C18.14 27.0623 18.19 26.8023 18.26 26.5623V26.5323H18.63L18.58 26.5923C18.5 26.7023 18.44 26.8223 18.39 26.9623L18.36 27.0423L18.43 27.0123C18.78 26.8623 19.13 26.6723 19.47 26.4323C19.63 26.2223 19.74 26.0023 19.8 25.7623V25.7423L19.78 25.7123C19.78 25.6923 19.76 25.6723 19.74 25.6623H19.73L19.71 25.6523C19.31 25.7023 18.21 25.7723 17.73 25.7423C17.73 25.7423 17.73 25.7423 17.74 25.7423C17.75 25.7423 17.77 25.7323 17.78 25.7223C18.49 25.7123 19.2 25.5823 19.88 25.3423C19.97 25.3023 20.08 25.2723 20.2 25.2423C20.67 25.1023 21.12 24.9023 21.54 24.6523H21.57V24.6223C21.57 24.6223 21.57 24.6123 21.57 24.6023C21.57 24.6023 21.57 24.5723 21.57 24.5623V24.5323H21.54C21.54 24.5323 21.53 24.5323 21.52 24.5323H21.51C21.51 24.5323 21.49 24.5323 21.48 24.5423C20.72 24.9823 20.25 25.1223 19.73 25.2223C19.46 25.2523 19.14 25.1623 18.94 25.0923C19.61 25.0923 20.5 24.7223 21.15 24.3623C21.59 24.1823 22 23.9423 22.38 23.6323L22.4 23.6123V23.5723C22.4 23.5723 22.4 23.5423 22.38 23.5323H22.37L22.33 23.5223C22.31 23.5223 22.3 23.5223 22.29 23.5323C22 23.7723 21.68 23.9723 21.36 24.1323C21.02 24.2323 20.68 24.2723 20.34 24.2423C20.78 24.1323 21.28 23.8623 21.64 23.6323C22.19 23.3523 22.71 23.0223 23.2 22.6523C23.2 22.6523 23.22 22.6323 23.22 22.6123C23.22 22.6123 23.22 22.5823 23.2 22.5723C23.2 22.5723 23.18 22.5523 23.16 22.5523C23.16 22.5523 23.13 22.5523 23.12 22.5623C22.73 22.8623 22.31 23.1323 21.89 23.3723C21.65 23.4223 21.4 23.4323 21.16 23.4123C21.78 23.3023 22.27 22.9523 22.67 22.6123C23.08 22.3423 23.46 22.0423 23.81 21.7223L23.83 21.7023V21.6423L23.8 21.6123H23.76H23.74H23.72C23.42 21.9023 23.09 22.1723 22.75 22.4023C22.51 22.4823 22.25 22.5323 21.98 22.5323C22.49 22.3923 22.88 22.0523 23.17 21.7623C23.49 21.5023 23.81 21.2123 24.11 20.8923C24.13 20.8723 24.13 20.8523 24.13 20.8523C24.13 20.8423 24.13 20.8323 24.13 20.8323V20.8123H24.12L24.08 20.7823C24.08 20.7823 24.05 20.7823 24.04 20.8023C23.82 21.0423 23.59 21.2623 23.36 21.4623C23.22 21.5423 23.07 21.5923 22.92 21.6123C23.23 21.4323 23.61 21.0623 23.85 20.7423C24.29 20.2823 24.67 19.7923 24.98 19.2923V19.2723L24.99 19.2423C24.99 19.2323 24.99 19.2223 24.99 19.2123V19.1823H24.95H24.92C24.91 19.1823 24.9 19.1823 24.89 19.1823H24.86V19.2123C24.57 19.6723 24.22 20.1223 23.83 20.5523C23.72 20.5723 23.61 20.5923 23.51 20.6023C23.67 20.4823 23.81 20.2823 23.97 20.0223C24.04 19.9223 24.11 19.8123 24.19 19.6923C24.52 19.3223 24.81 18.9223 25.05 18.4823C25.06 18.4623 25.06 18.4423 25.05 18.4223C25.05 18.4123 25.04 18.4023 25.03 18.3923C25.01 18.3723 24.99 18.3723 24.97 18.3923C24.96 18.3923 24.95 18.4023 24.94 18.4123C24.75 18.7623 24.53 19.0923 24.28 19.3823C24.21 19.4523 24.12 19.5123 24.01 19.5523C24.22 19.3023 24.4 19.0223 24.55 18.7223C24.8 18.3923 25 18.0323 25.15 17.6623V17.6223V17.6023V17.5823C25.15 17.5823 25.12 17.5623 25.1 17.5623H25.05L25.03 17.5823C24.88 17.9723 24.68 18.3323 24.43 18.6523C24.39 18.6923 24.34 18.7323 24.29 18.7623C24.54 18.4523 24.65 18.0623 24.75 17.7123V17.6723L24.68 17.6423ZM25.19 16.4123C25.16 16.5223 25.12 16.6123 25.09 16.7023C25.13 16.6123 25.16 16.5123 25.19 16.4223V16.4023V16.4123ZM23.65 17.1823C23.59 17.4923 23.73 17.9023 23.67 18.1023C23.61 18.2923 23.42 18.5623 23.31 18.3023C23.19 18.0423 23.38 17.4823 23.65 17.1823ZM23.76 18.3023C23.97 18.0723 24.3 18.0623 24.6 17.7023C24.51 18.1423 24.31 18.5423 24.05 18.7723C23.8 19.0023 23.35 18.7523 23.76 18.3023ZM24.55 16.2023C24.55 17.1923 24.51 17.4523 24.26 17.7523C24.01 18.0623 23.71 17.9223 23.86 17.3623C23.93 17.0723 24.39 16.4623 24.55 16.1923V16.2023ZM23.71 17.3723C23.71 17.3723 23.71 17.4723 23.73 17.5223C23.73 17.4723 23.72 17.4223 23.71 17.3723ZM24.05 18.8423C24.05 18.8423 24.14 18.8023 24.18 18.7823C24.14 18.8023 24.09 18.8223 24.05 18.8423ZM24.71 17.4823C24.69 17.5023 24.67 17.5323 24.65 17.5523C24.67 17.5223 24.69 17.5023 24.71 17.4823ZM24.56 17.2723C24.58 17.2323 24.6 17.1823 24.63 17.1423C24.61 17.1823 24.59 17.2323 24.56 17.2723ZM24.58 17.1123C24.58 17.0323 24.59 16.9523 24.6 16.8723C24.6 16.9523 24.6 17.0323 24.58 17.1123ZM25.06 16.0323C25.06 16.0323 25.06 16.0023 25.07 15.9923C25.07 15.9923 25.07 16.0223 25.06 16.0323ZM24.59 16.6223C24.59 16.7023 24.59 16.7823 24.59 16.8523C24.59 16.7723 24.59 16.7023 24.59 16.6223ZM24.59 16.4023C24.59 16.4023 24.59 16.4623 24.59 16.4923C24.59 16.4623 24.59 16.4323 24.59 16.4023ZM25 15.4123C24.98 15.5123 24.96 15.5923 24.94 15.6823C24.96 15.5923 24.98 15.5123 25 15.4223V15.4023V15.4123ZM24.98 15.3923C24.98 15.3923 24.98 15.3923 24.97 15.3923C24.97 15.3923 24.97 15.3923 24.98 15.3923ZM24.91 14.5623C24.91 14.5623 24.91 14.5623 24.9 14.5623C24.9 14.5623 24.9 14.5623 24.91 14.5623ZM24.88 14.5823C24.78 15.1223 24.65 15.6623 24.49 16.1823C24.49 16.1923 24.47 16.2123 24.46 16.2223C24.46 16.2123 24.48 16.1923 24.49 16.1823C24.66 15.6523 24.79 15.1223 24.88 14.5823ZM24.12 16.7223C24.27 16.2523 24.42 15.7223 24.51 15.3123C24.51 15.3123 24.51 15.3023 24.51 15.2923V15.3023C24.42 15.7123 24.26 16.2423 24.12 16.7123V16.7223ZM23.75 16.9023C23.73 16.9823 23.72 17.0523 23.71 17.1323C23.71 17.0523 23.73 16.9823 23.75 16.9023ZM23.96 16.1223C23.85 16.4823 23.72 16.8323 23.58 17.1723C23.72 16.8323 23.84 16.4823 23.96 16.1223ZM23.17 18.0223C23.17 18.0223 23.17 18.0123 23.17 18.0023C23.17 18.0023 23.17 18.0123 23.17 18.0223ZM23.16 19.3623C23.17 19.3023 23.2 19.2523 23.25 19.2123C23.43 19.0023 24.06 19.1123 24.3 18.8423C24 19.4123 23.71 19.6823 23.48 19.6923C23.42 19.7023 23.36 19.6923 23.3 19.6723C23.25 19.6423 23.21 19.6023 23.18 19.5423C23.15 19.4823 23.15 19.4323 23.16 19.3723V19.3623ZM24.04 19.6323C23.49 20.4523 23.35 20.5523 23.06 20.6323C22.99 20.6523 22.91 20.6523 22.84 20.6223C22.77 20.5923 22.72 20.5323 22.69 20.4623C22.52 20.6623 22.33 20.8523 22.13 21.0423C21.71 21.5323 21.48 21.6923 21.28 21.7423C20.99 21.8123 20.74 21.6523 21.14 21.3523C21.39 21.1723 21.83 21.1823 22.18 20.9423C22.33 20.8023 22.52 20.6123 22.68 20.4223C22.68 20.3523 22.68 20.2923 22.72 20.2223C22.74 20.1623 22.79 20.1123 22.84 20.0723C23.13 19.7823 23.85 19.7623 24.06 19.6423L24.04 19.6323ZM21.6 23.4423C20.83 23.9123 20.4 24.1123 19.95 24.1123C19.74 24.1123 19.61 24.0423 19.56 23.9323C19.81 23.8123 20.05 23.6723 20.29 23.5223C20.38 23.4823 20.47 23.4323 20.56 23.3823C20.9 23.4723 21.25 23.4923 21.6 23.4423ZM18.66 24.9223C18.99 24.8523 19.29 24.7423 19.59 24.5823C19.59 24.5823 19.6 24.5723 19.6 24.5623C19.6 24.5523 19.6 24.5423 19.6 24.5423C19.6 24.5423 19.59 24.5323 19.58 24.5323C19.58 24.5323 19.57 24.5323 19.56 24.5323C19.23 24.7023 18.87 24.8223 18.49 24.8923C18.48 24.8923 18.46 24.8923 18.45 24.8923C18.39 24.8923 18.33 24.8723 18.28 24.8323C18.22 24.8023 18.18 24.7623 18.14 24.7123C18.48 24.6223 18.8 24.5023 19.12 24.3523C19.29 24.3123 19.45 24.2523 19.64 24.1723C19.89 24.2723 20.24 24.3523 20.91 24.2623C19.83 24.7923 19.25 24.9723 18.65 24.9123L18.66 24.9223ZM18.71 25.2323H18.69L18.55 25.2723C18.24 25.3623 17.97 25.4523 17.73 25.5223C17.55 25.5023 17.38 25.4323 17.22 25.3523C17.55 25.2823 17.88 25.2023 18.2 25.0923H18.24C18.39 25.0323 18.55 25.0323 18.69 25.0923C18.94 25.2023 19.22 25.2723 19.5 25.2923C18.84 25.4723 18.31 25.5723 17.87 25.5323C18.09 25.4723 18.31 25.4023 18.56 25.3223L18.7 25.2823C18.7 25.2823 18.71 25.2823 18.73 25.2823V25.2623C18.73 25.2623 18.73 25.2523 18.72 25.2423L18.71 25.2323ZM18.81 26.4223H19.12C19.12 26.4223 18.6 26.7223 18.58 26.7123C18.65 26.6123 18.73 26.5123 18.81 26.4223ZM19.2 26.4823C19 26.6123 18.79 26.7223 18.57 26.8323C18.79 26.7323 18.99 26.6123 19.2 26.4823ZM19.32 26.3023C18.48 26.3323 17.63 26.3023 16.8 26.2023C17 26.1023 17.19 25.9823 17.38 25.8523C18.14 25.8723 18.89 25.8323 19.64 25.7423C19.56 25.9423 19.46 26.1323 19.32 26.3023ZM17.23 27.1323C17.4 27.1923 17.58 27.2323 17.76 27.2723C17.34 27.4523 16.89 27.5423 16.45 27.5323C16.73 27.4623 17 27.3323 17.23 27.1423V27.1323ZM13.91 25.8423C13.91 25.8423 14.05 25.7923 14.16 25.7523C15.48 26.1923 16.5 26.3223 18.04 26.4423C18.04 26.4423 17.97 26.7923 17.89 27.1723C17.13 27.0723 14.94 26.3023 13.92 25.8323L13.91 25.8423ZM15.2 27.1623C14.99 27.0523 15.39 26.8223 15.72 26.9423C16.05 27.0723 15.48 27.3023 15.2 27.1623ZM14.99 26.9723C14.99 26.9723 14.2 26.6123 13.8 26.4223C13.89 26.4023 13.98 26.3423 14.05 26.2723C14.05 26.2723 14.85 26.6123 15.47 26.8223C15.36 26.8023 15.08 26.8423 15 26.9723H14.99ZM11.92 27.4023C11.66 27.3123 11.39 27.2823 11.12 27.3423C11.64 26.9923 12.18 26.6823 12.74 26.4123C12.84 26.4923 12.95 26.5523 13.08 26.5623C12.67 26.8123 12.29 27.0923 11.92 27.4023ZM11.06 27.4623C11.36 27.3223 12.16 27.4623 11.71 27.6323C11.26 27.7923 10.71 27.6323 11.06 27.4623ZM10.24 27.1823C10.5 27.1223 10.86 27.3223 10.56 27.3823C10.25 27.4523 9.83002 27.2823 10.24 27.1823ZM10.39 27.0823C10.76 26.8623 11.26 26.5823 11.79 26.3223C11.81 26.3523 11.85 26.3823 11.89 26.3923C11.93 26.4023 11.96 26.4123 12.01 26.4123C12.14 26.3923 12.26 26.3323 12.34 26.2323C12.36 26.2123 12.39 26.1823 12.41 26.1623C12.43 26.1423 12.46 26.1223 12.49 26.1223C12.5 26.1223 12.54 26.1423 12.59 26.2223C11.9 26.5923 11.22 26.9623 10.83 27.2223C10.69 27.1323 10.54 27.0823 10.38 27.0823H10.39ZM10.12 26.8623C9.98003 26.7723 10.07 26.4723 10.22 26.3223C10.37 26.4123 10.49 26.5223 10.58 26.6523C10.58 26.6523 10.29 26.9723 10.11 26.8623H10.12ZM9.78003 23.7323H9.75003C9.75003 23.7323 9.75003 23.7323 9.75003 23.7423C9.75003 23.9623 9.77003 24.1623 9.81003 24.3723C9.82003 24.4623 9.83003 24.5423 9.84003 24.6123C9.64003 24.1823 9.32002 23.9223 8.99002 23.6823C8.99002 23.4323 8.95001 23.1823 8.85001 22.9523C8.85001 22.9523 8.85003 22.9423 8.84003 22.9423H8.83002C8.83002 22.9423 8.83001 22.9423 8.82001 22.9423C8.82001 22.9423 8.82001 22.9523 8.82001 22.9623V22.9823C8.91001 23.1923 8.96002 23.4223 8.96002 23.6423C8.92002 23.6223 8.89001 23.5923 8.85001 23.5723C8.44001 23.2923 8.06002 23.0223 7.86002 22.5223C7.86002 22.5123 7.86001 22.5023 7.85001 22.5023H7.83002C7.83002 22.5023 7.81003 22.5023 7.81003 22.5123V22.5323C8.02003 23.0523 8.42001 23.3323 8.82001 23.6123L8.89001 23.6723C8.66002 23.7123 8.44001 23.7323 8.20001 23.7323C8.20001 23.7323 8.19002 23.7323 8.18002 23.7323C8.18002 23.7323 8.17001 23.7423 8.17001 23.7523V23.7723H8.18002C8.18002 23.7723 8.25001 23.7723 8.29001 23.7723C8.51001 23.7723 8.73 23.7423 8.94 23.7023C9.3 23.9523 9.64003 24.2323 9.84003 24.7123C9.56003 24.6323 9.34003 24.6023 9.12003 24.6923C9.12003 24.6923 9.11002 24.7023 9.11002 24.7123C9.11002 24.7223 9.11002 24.7323 9.11002 24.7323C9.11002 24.7323 9.12 24.7423 9.13 24.7423H9.15002C9.33002 24.6623 9.54003 24.6723 9.87003 24.7823C9.91003 24.9023 9.94 25.0223 9.97 25.1423C9.88 25.2823 9.74002 25.3723 9.58002 25.4023C9.24002 25.4523 8.74003 25.5023 8.53003 25.2523C8.08003 24.7323 8.97002 24.7623 8.93002 24.3223C8.91002 24.0423 8.41003 24.0723 8.06003 24.2023C7.65003 24.3523 7.42001 23.9123 7.48001 23.7523C7.57001 23.4923 7.96002 23.7723 8.05002 23.4223C8.12002 23.1423 7.84 23.1323 7.47 22.9623C7.11 22.7923 7.23 22.4323 7.38 22.2423C7.44 22.1823 7.50002 22.1523 7.58002 22.1423C7.58002 22.1423 8.23002 22.4723 8.33002 22.6423C8.43002 22.8123 8.43001 22.7423 8.70001 22.7323C8.98001 22.7323 9.32001 22.8723 9.35001 23.1623C9.38001 23.4523 9.45002 23.4823 9.89001 23.3123C10.45 23.1023 10.53 23.8023 10.48 24.0723C10.45 24.1923 10.41 24.3223 10.32 24.4223C10.24 24.5923 10.15 24.7923 10.07 24.9723C10.06 25.0123 10.04 25.0423 10.02 25.0723C10 24.9623 9.96001 24.8523 9.92001 24.7423C9.92001 24.6023 9.90001 24.4723 9.88 24.3423C9.85001 24.1423 9.82001 23.9323 9.82001 23.7323V23.7123L9.78003 23.7323ZM9.53003 26.6223C9.40003 26.6423 9.22002 26.4823 9.15002 26.3723C9.11002 26.2823 9.07001 26.1923 9.01001 26.1023C8.96001 26.0123 8.92002 25.8623 8.99002 25.8123C9.08002 25.7423 9.20001 25.8523 9.20001 25.8523C9.34001 25.9723 9.53001 26.1123 9.73001 26.1123C9.77001 26.1123 9.82001 26.1023 9.85001 26.0723C9.91001 26.4623 9.76001 26.5823 9.54001 26.6223H9.53003ZM9.86002 25.9523C9.68002 26.1123 9.44003 25.8823 9.28003 25.7423C9.12003 25.6023 8.86003 25.6623 8.87003 25.9323C8.88003 26.2023 9.30002 26.5123 8.99002 26.7123C8.68002 26.9123 8.43001 26.5323 8.20001 26.6123C7.97001 26.6923 8.06003 26.8823 8.00003 27.1923C7.93003 27.5023 7.51003 27.6123 7.28003 27.4223C7.23003 27.3823 7.19 27.3223 7.16 27.2623C7.13 27.2023 7.11002 27.1323 7.11002 27.0623C7.11002 26.9923 7.12002 26.9223 7.15002 26.8623C7.17002 26.7923 7.22002 26.7423 7.27002 26.6923C7.31002 26.6523 7.35003 26.6223 7.37003 26.5723C7.40003 26.5223 7.41001 26.4723 7.42001 26.4223C7.43001 26.3723 7.42002 26.3123 7.40002 26.2623C7.38002 26.2023 7.36001 26.1623 7.32001 26.1223C7.19001 25.9823 6.72003 26.1223 6.75003 25.7423C6.76003 25.5723 6.91001 25.4323 7.26001 25.3723C7.52001 25.3523 7.76001 25.2623 7.98001 25.1223C8.02001 25.1023 8.05001 25.0623 8.07001 25.0323C8.09001 24.9923 8.10001 24.9523 8.10001 24.9123C8.10001 24.8723 8.09003 24.8223 8.06003 24.7923C8.04003 24.7523 8 24.7223 7.97 24.7023C7.84 24.6323 7.77001 24.4423 7.95001 24.3423C8.01001 24.3423 8.07 24.3223 8.13 24.3023C8.15 24.3023 8.16002 24.3023 8.18002 24.2923C8.27002 24.2923 8.35002 24.2923 8.43002 24.3223C8.50002 24.3523 8.58001 24.3923 8.64001 24.4523C8.66002 24.4723 8.70002 24.5123 8.74002 24.5623C8.70002 24.5823 8.67003 24.6123 8.62003 24.6423C8.48003 24.7323 8.34001 24.8323 8.32001 25.0023C8.32001 25.0623 8.32003 25.1123 8.34003 25.1623C8.36003 25.2123 8.39002 25.2623 8.43002 25.3023C8.36002 25.3723 8.29001 25.4523 8.23001 25.5323C8.21001 25.5523 7.79002 25.8323 7.58002 26.0223C7.58002 26.0223 7.58002 26.0323 7.58002 26.0423C7.58002 26.0523 7.58002 26.0523 7.58002 26.0623C7.58002 26.0723 7.59001 26.0723 7.60001 26.0723C7.61001 26.0723 7.61003 26.0723 7.62003 26.0723C7.76003 25.9523 8.00001 25.7823 8.14001 25.6823C7.86001 26.1323 7.69002 26.6323 7.65002 27.1523C7.65002 27.1523 7.65002 27.1623 7.65002 27.1723C7.65002 27.1723 7.66001 27.1823 7.67001 27.1823C7.68001 27.1823 7.68 27.1823 7.69 27.1823C7.69 27.1823 7.69 27.1723 7.69 27.1623C7.73 26.6323 7.91002 26.1123 8.21002 25.6523C8.21002 25.9123 8.28 26.1823 8.41 26.4123C8.41 26.4123 8.42002 26.4223 8.43002 26.4223C8.44002 26.4223 8.44001 26.4223 8.45001 26.4223C8.45001 26.4223 8.46002 26.4123 8.46002 26.4023C8.46002 26.3923 8.46002 26.3923 8.46002 26.3823C8.32002 26.1323 8.26001 25.8623 8.26001 25.5823C8.32001 25.5023 8.38001 25.4323 8.45001 25.3623L8.47 25.3823C8.62 25.5323 8.84 25.6023 9.13 25.6023C9.34 25.6023 9.57002 25.5823 9.77002 25.5023C9.95002 25.6523 9.98002 25.8623 9.86002 25.9723V25.9523ZM8.16 26.8623C8.16 26.8623 8.16 26.9223 8.16 26.9523C8.16 26.9223 8.16 26.8923 8.16 26.8623ZM7.26001 26.3523C7.26001 26.3523 7.25001 26.3123 7.23001 26.2923C7.24001 26.3123 7.25001 26.3323 7.26001 26.3523C7.27001 26.4023 7.27001 26.4523 7.26001 26.4923C7.28001 26.4523 7.28001 26.4023 7.26001 26.3523ZM6.52002 25.8623C6.52002 25.8623 6.53001 25.8423 6.54001 25.8323C6.55001 25.8323 6.56002 25.8223 6.58002 25.8223C6.60002 25.8223 6.62001 25.8323 6.64001 25.8423C6.65001 25.8523 6.66 25.8723 6.66 25.8923C6.66 25.9023 6.66002 25.9123 6.65002 25.9323C6.65002 25.9423 6.63003 25.9523 6.62003 25.9523C6.61003 25.9523 6.59002 25.9523 6.58002 25.9523C6.57002 25.9523 6.56001 25.9523 6.54001 25.9323C6.54001 25.9223 6.52002 25.9123 6.52002 25.8923C6.52002 25.8723 6.52002 25.8623 6.52002 25.8523V25.8623ZM6.51001 25.6723C6.51001 25.6723 6.49 25.6723 6.47 25.6623C6.46 25.6623 6.45001 25.6423 6.45001 25.6323C6.45001 25.6223 6.45001 25.6023 6.45001 25.5923C6.45001 25.5823 6.45 25.5723 6.47 25.5523C6.48 25.5523 6.49001 25.5323 6.51001 25.5323C6.53001 25.5323 6.54002 25.5323 6.55002 25.5323C6.56002 25.5323 6.57002 25.5423 6.58002 25.5523C6.58002 25.5623 6.59003 25.5723 6.59003 25.5923C6.59003 25.6123 6.59001 25.6323 6.57001 25.6523C6.56001 25.6623 6.54002 25.6723 6.52002 25.6723H6.51001ZM6.26001 25.2423C5.97001 25.2623 5.93001 25.6923 5.54001 25.7023C5.36001 25.7023 5.35003 25.5123 5.25003 25.2623C5.15003 25.0023 4.87001 25.2423 4.57001 25.2223C4.45001 25.2223 4.09 25.1023 4.16 24.7523C4.23 24.3923 4.67002 24.3623 4.90002 24.3423C5.15002 24.3223 5.10003 24.3223 5.09003 24.0323C5.09003 23.9823 5.09002 23.9323 5.11002 23.8923C5.13002 23.8523 5.16001 23.8023 5.20001 23.7823C5.24001 23.7623 5.29003 23.7423 5.34003 23.7423C5.39003 23.7423 5.44001 23.7523 5.48001 23.7823C5.56001 23.8423 5.65003 23.8723 5.75003 23.8723C5.85003 23.8723 5.94003 23.8523 6.03003 23.8023C6.27003 23.6723 6.09001 23.3723 6.45001 23.1223C6.68001 22.9623 7.17002 23.3023 7.43002 23.6123C7.40002 23.6423 7.37001 23.6823 7.35001 23.7123C7.34001 23.7823 7.34001 23.8623 7.35001 23.9323C7.37001 24.0023 7.4 24.0723 7.44 24.1223C7.48 24.1823 7.54002 24.2423 7.61002 24.2823C7.46002 24.2623 7.30001 24.2423 7.14001 24.2323C6.97001 24.1423 6.48 23.8223 6.47 23.8123C6.47 23.8123 6.46001 23.8123 6.45001 23.8123C6.44001 23.8123 6.44002 23.8123 6.43002 23.8223C6.42002 23.8323 6.43002 23.8323 6.43002 23.8423C6.43002 23.8523 6.43 23.8523 6.44 23.8623C6.44 23.8623 6.82003 24.1023 7.03003 24.2323C6.70003 24.2423 6.38002 24.3123 6.08002 24.4323H6.04001C5.90001 24.4223 5.78001 24.3723 5.67001 24.2923C5.58001 24.2423 5.49001 24.1923 5.39001 24.1523H5.37003C5.37003 24.1523 5.36002 24.1523 5.36002 24.1623V24.1823V24.1923C5.45002 24.2323 5.54 24.2823 5.63 24.3323C5.72001 24.3923 5.81 24.4323 5.91 24.4723C5.58 24.5923 5.23 24.6423 4.88 24.6023C4.88 24.6023 4.87002 24.6023 4.86002 24.6023C4.86002 24.6023 4.85001 24.6123 4.85001 24.6223C4.85001 24.6323 4.85001 24.6323 4.85001 24.6423C4.85001 24.6523 4.86003 24.6523 4.87003 24.6523C4.96003 24.6523 5.04003 24.6623 5.12003 24.6623C5.43003 24.6623 5.73002 24.5923 6.02002 24.4823C5.91002 24.6923 5.77002 24.8823 5.61002 25.0523C5.61002 25.0523 5.61002 25.0556 5.61002 25.0623V25.0823C5.61002 25.0823 5.61336 25.0823 5.62003 25.0823H5.63H5.64001C5.82001 24.8923 5.97003 24.6723 6.09003 24.4423C6.38003 24.3223 6.69001 24.2623 7.01001 24.2523C6.82001 24.4023 6.65003 24.5823 6.50003 24.7723C6.50003 24.7723 6.50003 24.7756 6.50003 24.7823V24.8023C6.50003 24.8023 6.51002 24.8123 6.52002 24.8123H6.53003H6.54001C6.70001 24.6023 6.88001 24.4123 7.10001 24.2623C7.28001 24.2623 7.47002 24.2923 7.65002 24.3323C7.65002 24.3323 7.66001 24.3323 7.67001 24.3323C7.69001 24.3823 7.69 24.4223 7.69 24.4723C7.63 24.7123 7.84003 24.7823 7.84003 24.9023C7.84003 25.0823 7.56001 25.1923 7.23001 25.2423C6.91001 25.3023 6.73002 25.3823 6.65002 25.4923C6.55002 25.3623 6.34002 25.2123 6.21002 25.2223L6.26001 25.2423ZM5.77002 25.8623C6.00002 25.8823 6.22001 25.9823 6.38 26.1423C6.33 26.2823 5.89003 26.7823 5.75003 26.6623C5.64003 26.5723 5.60002 26.1823 5.77002 25.8623ZM6.27002 25.4723C6.27002 25.4723 6.25002 25.4923 6.24002 25.4923C6.23002 25.4923 6.21001 25.4923 6.20001 25.4923C6.19001 25.4923 6.18 25.4923 6.16 25.4723C6.16 25.4623 6.14001 25.4523 6.14001 25.4323C6.14001 25.4123 6.14001 25.4023 6.14001 25.3923C6.14001 25.3823 6.15 25.3723 6.16 25.3623C6.17 25.3623 6.18001 25.3523 6.20001 25.3523C6.22001 25.3523 6.24001 25.3523 6.26001 25.3723C6.27001 25.3823 6.28003 25.4023 6.28003 25.4223C6.28003 25.4323 6.28002 25.4423 6.27002 25.4623V25.4723ZM6.31003 25.5823C6.31003 25.5823 6.33001 25.5823 6.35001 25.5923C6.36001 25.5923 6.37003 25.6123 6.37003 25.6223C6.37003 25.6323 6.37003 25.6523 6.37003 25.6623C6.37003 25.6723 6.37001 25.6823 6.35001 25.7023C6.34001 25.7023 6.33003 25.7223 6.31003 25.7223C6.29003 25.7223 6.28002 25.7223 6.27002 25.7223C6.26002 25.7223 6.25002 25.7123 6.24002 25.7023C6.24002 25.6923 6.23001 25.6823 6.23001 25.6623C6.23001 25.6423 6.23003 25.6223 6.25003 25.6023C6.26003 25.5923 6.28002 25.5823 6.30002 25.5823H6.31003ZM6.16 25.6823C6.16 25.6823 6.16 25.7123 6.16 25.7223C6.16 25.7323 6.16001 25.7423 6.14001 25.7623C6.13001 25.7623 6.12001 25.7823 6.10001 25.7823C6.08001 25.7823 6.07003 25.7823 6.06003 25.7823C6.05003 25.7823 6.04003 25.7723 6.03003 25.7623C6.03003 25.7523 6.02002 25.7423 6.02002 25.7223C6.02002 25.7023 6.02001 25.6923 6.04001 25.6623C6.05001 25.6523 6.07003 25.6423 6.09003 25.6423C6.10003 25.6423 6.11 25.6423 6.13 25.6523C6.14001 25.6523 6.15002 25.6723 6.15002 25.6823H6.16ZM6.36002 25.9523C6.36002 25.9523 6.34001 25.9523 6.32001 25.9323C6.32001 25.9223 6.30002 25.9123 6.30002 25.8923C6.30002 25.8723 6.30002 25.8623 6.30002 25.8523C6.30002 25.8423 6.31001 25.8323 6.32001 25.8223C6.33001 25.8123 6.34002 25.8123 6.36002 25.8123C6.38002 25.8123 6.40001 25.8123 6.42001 25.8323C6.43001 25.8423 6.44 25.8623 6.44 25.8823C6.44 25.8923 6.44002 25.9023 6.43002 25.9223C6.42002 25.9423 6.41002 25.9423 6.40002 25.9423C6.39002 25.9423 6.37002 25.9423 6.36002 25.9423V25.9523ZM4.34003 23.4323C4.34003 23.4323 4.32002 23.4323 4.30002 23.4123C4.30002 23.4023 4.28003 23.3923 4.28003 23.3723C4.28003 23.3523 4.28003 23.3423 4.28003 23.3323C4.28003 23.3223 4.29002 23.3123 4.30002 23.3023C4.31002 23.3023 4.32003 23.2923 4.34003 23.2923C4.36003 23.2923 4.38002 23.3023 4.40002 23.3123C4.41002 23.3223 4.42001 23.3423 4.42001 23.3623C4.42001 23.3723 4.42 23.3823 4.41 23.4023C4.41 23.4123 4.39 23.4223 4.38 23.4223C4.37 23.4223 4.35003 23.4223 4.34003 23.4223V23.4323ZM4.41 23.1523C4.41 23.1523 4.38003 23.1523 4.37003 23.1523C4.36003 23.1523 4.35002 23.1523 4.33002 23.1323C4.33002 23.1223 4.31003 23.1123 4.31003 23.0923C4.31003 23.0723 4.31003 23.0623 4.31003 23.0523C4.31003 23.0423 4.32002 23.0323 4.33002 23.0223C4.34002 23.0223 4.35003 23.0123 4.37003 23.0123C4.39003 23.0123 4.41002 23.0123 4.43002 23.0323C4.44002 23.0423 4.45001 23.0623 4.45001 23.0823C4.45001 23.0923 4.45 23.1023 4.44 23.1223C4.44 23.1323 4.42 23.1423 4.41 23.1423V23.1523ZM4.43002 22.8323C4.43002 22.8323 4.40001 22.8323 4.39001 22.8323C4.38001 22.8323 4.37001 22.8323 4.35001 22.8123C4.35001 22.8023 4.33002 22.7923 4.33002 22.7723C4.33002 22.7523 4.33002 22.7423 4.33002 22.7323C4.33002 22.7223 4.34001 22.7123 4.35001 22.7023C4.36001 22.6923 4.37001 22.6923 4.39001 22.6923C4.41001 22.6923 4.43001 22.7023 4.45001 22.7123C4.46001 22.7223 4.47 22.7423 4.47 22.7623C4.47 22.7723 4.47002 22.7823 4.46002 22.8023C4.46002 22.8123 4.44002 22.8223 4.43002 22.8223V22.8323ZM4.38 22.3023C4.38 22.3023 4.38002 22.3823 4.40002 22.4223C4.24002 22.5323 4.05002 22.5923 3.86002 22.5723C3.34002 22.5323 3.12 22.3423 3.13 22.1323C3.13 21.9423 3.56002 21.9823 3.58002 21.6823C3.59002 21.4423 3.30002 21.4023 3.05002 21.4023C2.42002 21.4023 2.36002 21.1823 2.36002 21.0323C2.36002 20.8223 2.54003 20.8023 2.81003 20.6523C3.14003 20.4623 2.89001 20.2623 2.70001 20.0723C2.51001 19.9023 2.31001 19.4923 2.70001 19.2723C3.09001 19.0523 3.25001 19.2623 3.42001 19.6523C3.57001 19.9923 3.88003 19.8223 4.00003 19.6923C4.08003 19.6023 4.33001 19.5823 4.45001 19.6023C4.48001 19.6423 4.52003 19.6823 4.56003 19.7223C4.68003 19.8523 4.80001 19.9823 4.92001 20.1023C4.95001 20.2323 4.96002 20.3623 4.96002 20.4923C4.93002 20.4923 4.90003 20.4923 4.87003 20.4923C4.75003 20.4923 4.62001 20.5323 4.51001 20.6023C4.39001 20.6623 4.30003 20.7723 4.25003 20.8923C4.19003 21.0123 4.19001 21.1523 4.23001 21.2823C4.13001 21.1823 4.02 21.0823 3.91 20.9723C3.89 20.6423 3.89002 20.3123 3.93002 19.9923V19.9723C3.93002 19.9723 3.92668 19.9723 3.92001 19.9723H3.91H3.90002C3.90002 19.9723 3.90002 19.9756 3.90002 19.9823C3.86002 20.2923 3.85003 20.6023 3.87003 20.9123C3.50003 20.5023 3.16002 20.0623 2.86002 19.5823C2.86002 19.5823 2.85003 19.5723 2.84003 19.5723C2.83003 19.5723 2.83001 19.5723 2.82001 19.5723C2.82001 19.5723 2.81003 19.5823 2.81003 19.5923C2.81003 19.6023 2.81003 19.6023 2.81003 19.6123C3.10003 20.1023 3.45003 20.5423 3.84003 20.9623C3.55003 20.9823 3.24002 20.9623 2.96002 20.8923C2.96002 20.8923 2.95 20.8923 2.94 20.8923C2.93 20.8923 2.93002 20.9023 2.93002 20.9123C2.93002 20.9223 2.93002 20.9223 2.93002 20.9323C2.93002 20.9323 2.94001 20.9423 2.95001 20.9423C3.17001 20.9923 3.4 21.0123 3.63 21.0223C3.72 21.0223 3.80001 21.0223 3.89001 21.0023C4.03001 21.1423 4.16002 21.2723 4.30002 21.3923C4.35002 21.4923 4.42003 21.5723 4.50003 21.6423C4.70003 21.8123 4.71002 21.8723 4.71002 21.8823C4.71002 21.8823 4.71002 21.9023 4.65002 21.9423C4.51002 22.0423 4.39001 22.1623 4.39001 22.3123L4.38 22.3023ZM4.18002 23.3023C3.83002 23.3023 3.41001 23.1323 3.42001 22.9623C3.42001 22.7923 3.87002 22.6723 4.18002 22.7023C4.22002 22.9023 4.22002 23.1123 4.18002 23.3023ZM2.36002 21.2823C2.36002 21.2823 2.36002 21.2823 2.36002 21.2723C2.36002 21.2723 2.36002 21.2723 2.36002 21.2823ZM2.34003 21.2523C2.34003 21.2523 2.34002 21.2423 2.33002 21.2323C2.33002 21.2323 2.33003 21.2423 2.34003 21.2523ZM2.31003 21.2023C2.31003 21.2023 2.31003 21.1923 2.31003 21.1823C2.31003 21.1823 2.31003 21.1923 2.31003 21.2023ZM1.05002 17.7323C0.820018 17.5623 0.570015 17.2723 0.640015 17.1623C0.700015 17.0723 1.15001 17.0623 1.39001 17.2623C1.30001 17.4323 1.19002 17.5923 1.05002 17.7323ZM1.24002 17.8723C1.24002 17.8723 1.24 17.9123 1.22 17.9223C1.21 17.9323 1.19001 17.9423 1.17001 17.9423C1.15001 17.9423 1.13003 17.9423 1.12003 17.9223C1.11003 17.9123 1.10001 17.8923 1.10001 17.8723C1.10001 17.8523 1.10003 17.8323 1.12003 17.8223C1.13003 17.8123 1.15001 17.8023 1.17001 17.8023C1.19001 17.8023 1.21 17.8123 1.22 17.8223C1.23 17.8323 1.24002 17.8523 1.24002 17.8723ZM1.32001 17.5923C1.32001 17.5923 1.35003 17.5723 1.37003 17.5723C1.39003 17.5723 1.41001 17.5723 1.42001 17.5923C1.43001 17.6023 1.44 17.6223 1.44 17.6423C1.44 17.6623 1.44001 17.6823 1.42001 17.6923C1.41001 17.7023 1.39003 17.7123 1.37003 17.7123H1.35001C1.34001 17.7123 1.33002 17.7123 1.33002 17.7023C1.33002 17.7023 1.33001 17.6823 1.32001 17.6823C1.32001 17.6823 1.32001 17.6723 1.32001 17.6623C1.32001 17.6423 1.32003 17.6223 1.34003 17.6123L1.32001 17.5923ZM1.34003 17.8223C1.34003 17.8223 1.37001 17.8023 1.39001 17.8023C1.41001 17.8023 1.43 17.8123 1.44 17.8223C1.45 17.8323 1.46002 17.8523 1.46002 17.8723C1.46002 17.8923 1.46 17.9123 1.44 17.9223C1.43 17.9323 1.41001 17.9423 1.39001 17.9423C1.37001 17.9423 1.35003 17.9423 1.34003 17.9223C1.33003 17.9123 1.32001 17.8923 1.32001 17.8723C1.32001 17.8523 1.32003 17.8323 1.34003 17.8223ZM1.61002 17.4323C1.61002 17.4323 1.58003 17.4523 1.56003 17.4523C1.54003 17.4523 1.52001 17.4523 1.51001 17.4323C1.50001 17.4223 1.49002 17.4023 1.49002 17.3823C1.49002 17.3623 1.49001 17.3423 1.51001 17.3323C1.52001 17.3223 1.54003 17.3123 1.56003 17.3123H1.58002C1.59002 17.3123 1.60001 17.3123 1.60001 17.3223C1.60001 17.3223 1.60002 17.3423 1.61002 17.3423C1.61002 17.3423 1.61002 17.3523 1.61002 17.3623C1.61002 17.3823 1.61003 17.4023 1.59003 17.4123L1.61002 17.4323ZM1.68002 17.5923C1.68002 17.5923 1.70001 17.6223 1.70001 17.6423C1.70001 17.6623 1.70002 17.6823 1.68002 17.6923C1.67002 17.7023 1.65 17.7123 1.63 17.7123C1.61 17.7123 1.59002 17.7123 1.58002 17.6923C1.57002 17.6823 1.56003 17.6623 1.56003 17.6423C1.56003 17.6223 1.56002 17.6023 1.58002 17.5923C1.59002 17.5823 1.61 17.5723 1.63 17.5723C1.65 17.5723 1.67002 17.5823 1.68002 17.5923ZM1.89001 17.6723C1.91001 17.3823 1.39001 17.0223 1.26001 16.9323C1.07001 16.7923 0.970004 16.5323 1.41 16.3323C1.45 16.3123 1.48001 16.2923 1.51001 16.2523C1.53001 16.2123 1.55003 16.1823 1.56003 16.1323C1.56003 16.0923 1.56003 16.0423 1.56003 16.0023C1.55003 15.9623 1.53003 15.9223 1.50003 15.8923C1.08003 15.4023 1.08002 15.2123 1.27002 14.9623C1.55002 14.5823 2.01001 15.2023 2.14001 15.5423C2.36001 16.2223 2.64001 16.8623 2.98001 17.4823C2.98001 17.4823 3.18 18.3123 2.94 17.9723C2.66 16.9623 2.27001 16.3123 1.79001 15.5723C1.79001 15.5723 1.78002 15.5623 1.77002 15.5623C1.76002 15.5623 1.76003 15.5623 1.75003 15.5623C1.74003 15.5623 1.74002 15.5723 1.74002 15.5823C1.74002 15.5923 1.74002 15.5923 1.74002 15.6023C2.15002 16.2023 2.49002 16.8523 2.74002 17.5323C2.56002 17.2223 2.32003 16.9423 2.03003 16.7123L1.98001 16.6723C1.98001 16.6723 1.97002 16.6723 1.96002 16.6723C1.96002 16.6723 1.95 16.6723 1.94 16.6823C1.93 16.6923 1.94 16.6923 1.94 16.7023C1.94 16.7023 1.94001 16.7123 1.95001 16.7223L2.00003 16.7623C2.34003 17.0723 2.65003 17.3423 2.87003 17.9523C3.08003 18.6023 2.78003 19.1623 2.34003 19.1623C1.77003 19.1623 1.54001 18.5923 1.54001 18.3623C1.53001 17.9923 1.87001 17.9523 1.89001 17.6623V17.6723ZM1.95001 15.0823C1.95001 15.0823 2.00003 15.1523 2.03003 15.1823C2.05003 15.2423 2.07002 15.3023 2.08002 15.3523C2.06002 15.2923 2.04003 15.2423 2.03003 15.1823C2.01003 15.1423 1.98001 15.1123 1.95001 15.0823ZM6.90002 7.96231L7.70001 9.85229L5.73001 10.6823L5.88 10.6223C6.06 9.68228 6.43002 8.81229 6.93002 8.03229L6.90002 7.96231ZM5.72 10.6823L4.14001 11.3423C4.28001 9.43229 5.04001 7.6823 6.20001 6.2923L6.86002 7.87228C6.30002 8.70228 5.9 9.66231 5.72 10.6823ZM8.21002 10.0523L6.20001 5.2623L11.01 7.22229L12.97 2.41229L14.98 7.2023L19.77 5.19229L17.81 10.0023L22.61 11.9623L17.82 13.9723L19.83 18.7623L15.02 16.8023L13.06 21.6123L11.05 16.8223L6.26001 18.8323L8.23001 14.0223L3.42001 12.0623L8.21002 10.0523ZM8.79001 5.91229L8.92001 5.96231L7.11002 5.22229L7.21002 5.2623C8.59002 4.0723 10.33 3.30229 12.25 3.13229L10.79 6.72229L8.95001 5.97229C9.72001 5.45229 10.6 5.07228 11.54 4.87228L11.6 4.71231C10.57 4.91231 9.62001 5.32231 8.79001 5.90231V5.91229ZM14.34 4.7023L14.4 4.83231L13.68 3.12228C15.6 3.26228 17.36 4.01229 18.76 5.19229L18.85 5.15231L17.18 5.85229C16.34 5.28229 15.38 4.88229 14.34 4.69229V4.7023ZM17.02 5.9223L15.18 6.7023L14.4 4.8623C15.35 5.0423 16.23 5.41231 17.01 5.93231L17.02 5.9223ZM21.91 11.2523L20.32 10.6023C20.12 9.56229 19.7 8.6023 19.12 7.7623L19.8 6.09229L19.76 6.18231C20.96 7.56231 21.74 9.32229 21.9 11.2523H21.91ZM20.21 10.5623L18.3 9.78229L19.06 7.9223C19.59 8.7023 19.97 9.58229 20.16 10.5323L20.21 10.5523V10.5623ZM19.17 16.1823C19.74 15.3423 20.15 14.3823 20.33 13.3423L21.91 12.6723C21.77 14.6023 21.01 16.3623 19.83 17.7623L19.13 16.1023L19.17 16.1823ZM19.1 16.0223L18.32 14.1823L20.17 13.4023C19.98 14.3523 19.61 15.2423 19.1 16.0223ZM17.09 18.0623C16.31 18.5823 15.43 18.9623 14.49 19.1523L15.24 17.3023L17.09 18.0523V18.0623ZM22.06 19.4623C22.06 19.4623 22.06 19.4623 22.05 19.4623H22.04C22.04 19.4623 22.04 19.4623 22.03 19.4623C21.96 19.5523 21.89 19.6423 21.83 19.7123C21.85 19.3523 22.24 18.8523 22.4 18.7023C22.4 18.9523 22.41 19.2323 22.39 19.4723C22.26 19.6123 22.08 19.8223 21.92 20.0123C21.89 19.9923 21.87 19.9523 21.85 19.9123C21.83 19.8723 21.83 19.8423 21.83 19.7923C21.91 19.7023 22 19.6123 22.08 19.5023C22.08 19.5023 22.08 19.499 22.08 19.4923V19.4723L22.06 19.4623ZM22.36 19.5623C22.35 19.6823 22.3 19.7923 22.23 19.8923C22.2 19.9423 22.16 19.9823 22.11 19.9923C22.07 20.0123 22.01 20.0323 21.96 20.0223C22.09 19.8623 22.24 19.6923 22.36 19.5523V19.5623ZM22.31 20.0423C22.52 19.8223 22.71 19.5923 22.88 19.3323H22.9V19.3523C22.73 19.6123 22.53 19.8523 22.32 20.0723C22.22 20.2623 22.14 20.4323 22.05 20.5723C22.28 20.3523 22.62 20.0223 22.87 19.7423H22.88V19.7623C22.59 20.0723 22.19 20.4823 21.96 20.6823C21.89 20.8023 21.81 20.9123 21.71 21.0123C21.45 21.2723 21.08 21.0323 21.34 20.6823C21.57 20.3823 22.11 20.1123 22.29 20.0523L22.31 20.0423ZM21.05 21.2623C20.86 21.5223 20.69 21.6223 20.6 21.5423C20.51 21.4623 20.62 21.1423 20.87 20.8023C21.13 20.4723 21.41 20.1523 21.71 19.8723C20.98 20.7423 21.24 21.0023 21.05 21.2623ZM21.94 21.7223C21.35 22.1923 21.01 22.3023 20.67 22.3123C20.33 22.3223 20.15 22.1323 20.56 21.9023C20.91 21.7023 21.53 21.8823 21.94 21.7223ZM20.41 21.6623C20.38 22.0023 19.97 22.3523 19.96 21.7623C19.96 21.3223 20.52 20.8923 20.65 20.7923C20.34 21.3723 20.43 21.3223 20.4 21.6623H20.41ZM21.09 22.4723C20.39 22.8823 20.1 22.9323 19.8 22.9323C19.5 22.9323 19.42 22.7123 19.65 22.5223C20 22.2323 20.43 22.5423 21.09 22.4723ZM21.36 22.6023C21.08 22.7723 20.79 22.9123 20.49 23.0223C20.48 22.9723 20.48 22.9123 20.49 22.8623C20.68 22.7823 20.86 22.6923 21.04 22.5823C21.14 22.5823 21.24 22.5823 21.35 22.6023H21.36ZM15.98 25.2623C15.59 25.1523 15.61 24.7323 16.08 24.6323C16.58 24.5323 17.44 24.9823 18.18 24.9923C16.99 25.3623 16.37 25.3623 15.98 25.2623ZM17.06 25.3723C17.15 25.4323 17.25 25.4723 17.35 25.5023C17.11 25.5023 16.88 25.4623 16.64 25.4123C16.78 25.4123 16.92 25.3923 17.05 25.3723H17.06ZM17.32 24.7723C17.39 24.7723 17.47 24.7723 17.53 24.7723C17.69 24.7723 17.86 24.7723 18.02 24.7523C18.09 24.8123 18.17 24.8623 18.25 24.9023C17.93 24.9023 17.62 24.8623 17.32 24.7623V24.7723ZM17.07 24.6623C16.55 24.5923 16.89 24.1223 17.18 24.0523C17.62 23.9523 18.2 24.3923 18.73 24.4423C18.21 24.6623 17.63 24.7323 17.07 24.6623ZM18.22 24.2323C18.22 24.2323 18.27 24.2323 18.3 24.2323C18.66 24.2323 19.01 24.1623 19.34 24.0223C19.41 24.0623 19.49 24.1123 19.57 24.1523C19.35 24.2423 19.12 24.3223 18.88 24.3723C18.65 24.4023 18.41 24.3023 18.21 24.2323H18.22ZM18.22 24.1323C17.91 24.1123 17.72 23.8723 18.08 23.6123C18.55 23.2823 19.44 23.7523 19.73 23.7023C19.13 24.0523 18.51 24.1523 18.21 24.1223L18.22 24.1323ZM19.54 23.6323C19.54 23.6323 19.57 23.5623 19.6 23.5323C19.76 23.4723 19.91 23.4123 20.05 23.3323C20.19 23.3323 20.33 23.3423 20.47 23.3723C20.32 23.4523 20.16 23.5223 20 23.5923C19.94 23.6123 19.9 23.6223 19.88 23.6323C19.77 23.6523 19.65 23.6623 19.54 23.6323ZM19.58 22.4323C19.29 22.7123 19.11 22.5023 19.29 22.0823C19.46 21.6723 19.95 21.3223 19.95 21.3223C19.67 21.8623 19.86 22.1623 19.58 22.4323ZM20.3 23.1023C19.75 23.4323 19.43 23.5823 19.02 23.4623C18.74 23.3923 18.77 23.1623 18.92 23.0523C19.17 22.8823 19.81 23.1523 20.3 23.0923V23.1023ZM18.89 22.9423C18.53 23.3023 18.39 22.9223 18.58 22.5623C18.75 22.2523 19.03 22.0623 19.22 21.8623C19 22.3023 19.24 22.5823 18.89 22.9423ZM18.03 23.5023C17.62 23.8723 17.45 23.5223 17.62 23.1723C17.8 22.8123 18.36 22.3223 18.67 22.1723C18.17 22.7523 18.44 23.1323 18.02 23.5023H18.03ZM17.12 23.9523C16.83 24.2423 16.35 24.0323 16.67 23.5123C16.93 23.0723 17.6 22.6923 17.8 22.5623C17.44 23.1723 17.41 23.6723 17.12 23.9523ZM15.98 24.5023C15.46 25.0023 15.36 24.4223 15.51 24.1723C15.84 23.7023 16.25 23.3123 16.74 23.0223C16.3 23.7623 16.56 23.9423 15.98 24.5023ZM14.91 25.1223C14.62 25.4023 14.26 25.1923 14.46 24.7623C14.75 24.1323 15.52 23.5123 15.94 23.2723C15.33 24.1423 15.21 24.8423 14.91 25.1223ZM14.02 25.2523C13.69 25.5923 13.2 25.4223 13.42 24.9223C13.67 24.4023 14.57 23.7023 15.16 23.4823C14.38 24.3223 14.51 24.7323 14.01 25.2423L14.02 25.2523ZM13.46 24.5823C13.46 24.5823 13.42 24.5123 13.39 24.4723C13.33 24.4023 13.26 24.3423 13.18 24.3023C13.52 24.0123 13.95 23.6923 14.38 23.5623C14.04 23.8723 13.74 24.2123 13.46 24.5823ZM13.1 24.1823C13.06 23.9823 12.96 23.8023 12.82 23.6623C13.07 23.4923 13.43 23.4723 13.5 23.5923C13.6 23.7423 13.3 24.0623 13.1 24.1923V24.1823ZM12.97 24.1323C12.97 24.1323 12.97 24.1523 12.96 24.1723C12.96 24.1823 12.94 24.1923 12.93 24.1923C12.92 24.1923 12.9 24.1923 12.89 24.1923C12.88 24.1923 12.87 24.1923 12.85 24.1723C12.85 24.1623 12.83 24.1523 12.83 24.1323C12.83 24.1123 12.83 24.1023 12.83 24.0923C12.83 24.0823 12.84 24.0723 12.85 24.0623C12.86 24.0623 12.87 24.0523 12.89 24.0523C12.91 24.0523 12.93 24.0623 12.95 24.0723C12.96 24.0823 12.97 24.1023 12.97 24.1223V24.1323ZM13 22.6223C10.1 22.6223 7.47003 21.4423 5.56003 19.5523L7.13 18.8923C8.57001 20.1223 10.4 20.9223 12.4 21.0523L12.34 20.9023C10.42 20.7523 8.67003 20.0023 7.28003 18.8223L8.92001 18.1323L8.85001 18.1623C9.70001 18.7423 10.66 19.1323 11.67 19.3123V19.2923L13.06 22.6223C13.04 22.6223 13.01 22.6223 12.99 22.6223H13ZM12.62 24.1023C12.62 24.1023 12.64 24.0923 12.66 24.0923C12.68 24.0923 12.7 24.1023 12.72 24.1123C12.73 24.1223 12.74 24.1423 12.74 24.1623C12.74 24.1723 12.74 24.1823 12.73 24.2023C12.73 24.2123 12.71 24.2223 12.7 24.2223C12.69 24.2223 12.67 24.2223 12.66 24.2223C12.65 24.2223 12.64 24.2223 12.62 24.2023C12.62 24.1923 12.6 24.1823 12.6 24.1623C12.6 24.1423 12.6 24.1323 12.6 24.1223C12.6 24.1123 12.61 24.1023 12.62 24.0923V24.1023ZM12.61 23.7023C12.61 23.7023 12.61 23.6823 12.63 23.6623C12.64 23.6623 12.65 23.6423 12.67 23.6423C12.69 23.6423 12.7 23.6423 12.71 23.6423C12.72 23.6423 12.73 23.6523 12.74 23.6623C12.74 23.6723 12.75 23.6823 12.75 23.7023C12.75 23.7023 12.75 23.7223 12.74 23.7323C12.74 23.7423 12.74 23.7523 12.73 23.7523C12.73 23.7523 12.71 23.7523 12.71 23.7623C12.71 23.7723 12.7 23.7623 12.69 23.7623C12.68 23.7623 12.67 23.7623 12.65 23.7523C12.64 23.7523 12.63 23.7323 12.63 23.7223C12.63 23.7123 12.63 23.6923 12.63 23.6823L12.61 23.7023ZM12.71 24.0223C12.71 24.0223 12.69 24.0223 12.67 24.0023C12.67 23.9923 12.65 23.9823 12.65 23.9623C12.65 23.9423 12.65 23.9323 12.65 23.9223C12.65 23.9123 12.66 23.9023 12.67 23.8923C12.68 23.8823 12.69 23.8823 12.71 23.8823C12.71 23.8823 12.73 23.8823 12.74 23.8923C12.75 23.8923 12.76 23.8923 12.76 23.9023C12.76 23.9023 12.76 23.9223 12.77 23.9223C12.77 23.9223 12.77 23.9323 12.77 23.9423C12.77 23.9523 12.77 23.9623 12.76 23.9823C12.75 24.0023 12.74 24.0023 12.73 24.0023C12.72 24.0023 12.7 24.0023 12.69 24.0023L12.71 24.0223ZM12.56 23.9323C12.56 23.9323 12.56 23.9523 12.55 23.9723C12.54 23.9923 12.53 23.9923 12.52 23.9923C12.51 23.9923 12.49 23.9923 12.48 23.9923C12.47 23.9923 12.46 23.9923 12.44 23.9723C12.44 23.9623 12.42 23.9523 12.42 23.9323C12.42 23.9123 12.42 23.9023 12.42 23.8923C12.42 23.8823 12.43 23.8723 12.44 23.8623C12.45 23.8623 12.46 23.8523 12.48 23.8523C12.5 23.8523 12.52 23.8623 12.54 23.8723C12.55 23.8823 12.56 23.9023 12.56 23.9223V23.9323ZM5.55002 21.1623C5.55002 21.1623 5.51001 21.1223 5.48001 21.0623C5.44001 20.9423 5.31002 20.6423 5.05002 20.5323C5.10002 20.5123 5.16 20.5023 5.22 20.5123C5.28 20.5223 5.34 20.5423 5.38 20.5823C5.46 20.6523 5.52002 20.7523 5.55002 20.8523C5.58002 20.9523 5.58002 21.0723 5.55002 21.1723V21.1623ZM6.91 16.2323L6.26001 17.8223C5.08001 16.4423 4.31001 14.7023 4.14001 12.7923L7.72 14.2523L6.97 16.0823C6.44 15.3023 6.08001 14.4323 5.89001 13.5023L5.73001 13.4323C5.92001 14.4423 6.32 15.3923 6.91 16.2323ZM9.02002 18.1023L10.85 17.3323L11.62 19.1623C10.69 18.9823 9.81002 18.6223 9.02002 18.1023ZM4.00003 12.7223C4.15003 14.7223 4.96002 16.5423 6.21002 17.9623L6.25003 17.8523L5.56003 19.5423C3.64003 17.6323 2.44001 14.9923 2.42001 12.0723L4.00003 12.7123V12.7223ZM3.35001 18.7723C3.35001 18.7723 3.28001 18.7023 3.26001 18.6423C3.24001 18.5923 3.24003 18.5423 3.25003 18.4923C3.26003 18.4423 3.28001 18.4023 3.32001 18.3523C3.36001 18.3123 3.40001 18.2823 3.45001 18.2623C3.65001 18.5723 3.87001 18.8723 4.10001 19.1523C4.04001 19.3923 3.85 19.7623 3.66 19.6723C3.42 19.5523 3.53003 19.2923 3.59003 19.1823C3.65003 19.0823 3.63003 18.9623 3.37003 18.7623L3.35001 18.7723ZM2.47 19.2823C2.47 19.2823 2.50001 19.2823 2.51001 19.2823C2.50001 19.2823 2.48 19.2823 2.47 19.2823ZM4.55002 23.1723C4.55002 23.1723 4.59002 23.1723 4.61002 23.1923C4.62002 23.2023 4.63 23.2223 4.63 23.2423C4.63 23.2523 4.63003 23.2623 4.62003 23.2823C4.62003 23.2923 4.60003 23.3023 4.59003 23.3023C4.58003 23.3023 4.56002 23.3023 4.55002 23.3023C4.54002 23.3023 4.53001 23.3023 4.51001 23.2823C4.51001 23.2723 4.49002 23.2623 4.49002 23.2423C4.49002 23.2223 4.49002 23.2123 4.49002 23.2023C4.49002 23.1923 4.50001 23.1823 4.51001 23.1723C4.52001 23.1623 4.53002 23.1623 4.55002 23.1623V23.1723ZM4.51001 22.9523C4.51001 22.9523 4.51001 22.9223 4.51001 22.9123C4.51001 22.9023 4.52003 22.8923 4.53003 22.8823C4.54003 22.8823 4.55001 22.8723 4.57001 22.8723C4.59001 22.8723 4.61 22.8823 4.63 22.8923C4.64001 22.9023 4.65002 22.9223 4.65002 22.9423C4.65002 22.9523 4.65001 22.9623 4.64001 22.9823C4.64001 22.9923 4.62002 23.0023 4.61002 23.0023C4.60002 23.0023 4.58001 23.0023 4.57001 23.0023C4.56001 23.0023 4.55003 23.0023 4.53003 22.9823C4.53003 22.9723 4.51001 22.9623 4.51001 22.9423V22.9523ZM4.98001 23.1223C5.09001 22.9623 4.92002 22.8023 4.65002 22.5723C4.38002 22.3423 4.46001 22.1823 4.67001 22.0223C4.88001 21.8623 4.81001 21.7623 4.54001 21.5423C4.22001 21.2823 4.23001 20.8823 4.54001 20.6823C4.97001 20.4023 5.25002 20.7723 5.36002 21.0523C5.47002 21.3323 5.60002 21.3123 5.77002 21.1723C6.02002 21.0223 6.12 21.3323 6.19 21.6723C6.26 22.0023 6.46002 21.9523 6.61002 21.9223C6.94002 21.8623 7.1 22.0223 7.19 22.2523C7.15 22.3223 7.11003 22.3923 7.09003 22.4723C7.07003 22.5523 7.07003 22.6423 7.09003 22.7223C7.11003 22.8123 7.15002 22.8823 7.21002 22.9423C7.27002 23.0023 7.33 23.0523 7.41 23.0823C7.46 23.1023 7.51002 23.1323 7.55002 23.1523C7.89002 23.3123 7.92001 23.3523 7.89001 23.4423C7.87001 23.5123 7.83001 23.5323 7.67001 23.5323C7.61001 23.5323 7.55002 23.5323 7.49002 23.5523C7.26002 23.2623 6.88001 22.9523 6.57001 22.9523H6.54001V22.5123C6.54001 22.5123 6.54001 22.5023 6.54001 22.4923C6.54001 22.4923 6.53002 22.4923 6.52002 22.4923C6.51002 22.4923 6.51003 22.4923 6.50003 22.4923C6.49003 22.4923 6.50003 22.5023 6.50003 22.5123V22.9523C6.50003 22.9523 6.40002 22.9823 6.36002 23.0123C6.28002 23.0623 6.22001 23.1323 6.17001 23.2123C6.05001 22.9423 5.92002 22.6823 5.77002 22.4223C5.77002 21.9323 5.83001 21.5523 5.89001 21.4423V21.4223C5.89001 21.4223 5.89001 21.4123 5.88 21.4023H5.86002C5.86002 21.4023 5.85003 21.4023 5.84003 21.4123C5.77003 21.5423 5.72 21.9123 5.72 22.3323C5.43 21.8623 5.10002 21.4223 4.74002 21.0023C4.74002 21.0023 4.73668 21.0023 4.73001 21.0023H4.72H4.71002C4.71002 21.0023 4.71002 21.0056 4.71002 21.0123V21.0323C5.06002 21.4523 5.39002 21.9023 5.68002 22.3623C5.54002 22.3223 5.41002 22.2923 5.27002 22.2723C5.13002 22.2523 4.97001 22.2123 4.82001 22.1823H4.81003C4.81003 22.1823 4.81002 22.1823 4.80002 22.1823C4.80002 22.1823 4.80002 22.1923 4.80002 22.2023V22.2223C4.80002 22.2223 4.80336 22.2223 4.81003 22.2223C4.96003 22.2623 5.12001 22.2923 5.26001 22.3123C5.42001 22.3323 5.58001 22.3723 5.73001 22.4323C5.89001 22.6923 6.03002 22.9723 6.15002 23.2523C6.12002 23.3223 6.10003 23.4123 6.09003 23.4923H6.08002C5.85002 23.4423 5.63001 23.3623 5.42001 23.2523C5.42001 23.2523 5.41667 23.2523 5.41 23.2523H5.40002H5.39001V23.2723V23.2823C5.39001 23.2823 5.39002 23.2823 5.40002 23.2823C5.62002 23.4023 5.85003 23.4823 6.09003 23.5323C6.07003 23.5923 6.04002 23.6323 5.99002 23.6723C5.93002 23.7023 5.87003 23.7223 5.81003 23.7223C5.72003 23.7223 5.63003 23.6923 5.56003 23.6423C5.50003 23.6023 5.43002 23.5823 5.36002 23.5823C5.32002 23.5823 5.27001 23.5823 5.23001 23.6023C5.19001 23.6223 5.16001 23.6423 5.13 23.6723C5.09 23.7223 5.06001 23.7723 5.04001 23.8423C5.02001 23.9023 5.02002 23.9623 5.02002 24.0223V24.0823C4.87002 23.9923 4.73001 23.8823 4.60001 23.7523C4.29001 23.4523 4.81003 23.3323 5.00003 23.0623L4.98001 23.1223ZM4.68002 23.1323C4.68002 23.1323 4.68002 23.1023 4.68002 23.0923C4.68002 23.0823 4.69001 23.0723 4.70001 23.0623C4.71001 23.0623 4.72002 23.0523 4.74002 23.0523C4.76002 23.0523 4.78002 23.0523 4.80002 23.0723C4.81002 23.0823 4.82001 23.1023 4.82001 23.1223C4.82001 23.1323 4.82003 23.1423 4.81003 23.1623C4.81003 23.1723 4.79003 23.1823 4.78003 23.1823C4.77003 23.1823 4.75002 23.1823 4.74002 23.1823C4.73002 23.1823 4.72001 23.1823 4.70001 23.1623C4.70001 23.1523 4.68002 23.1423 4.68002 23.1223V23.1323ZM10.39 26.1723C10.39 26.1723 10.39 26.1523 10.41 26.1323C10.42 26.1323 10.43 26.1123 10.45 26.1123C10.47 26.1123 10.48 26.1123 10.49 26.1123C10.5 26.1123 10.51 26.1223 10.52 26.1323C10.52 26.1423 10.53 26.1523 10.53 26.1723C10.53 26.1923 10.53 26.2123 10.51 26.2323C10.5 26.2423 10.48 26.2523 10.46 26.2523C10.45 26.2523 10.44 26.2523 10.42 26.2423C10.41 26.2423 10.4 26.2223 10.4 26.2123C10.4 26.2023 10.4 26.1823 10.4 26.1723H10.39ZM10.66 26.3523C10.66 26.3523 10.68 26.3523 10.69 26.3623C10.7 26.3623 10.71 26.3623 10.71 26.3723C10.71 26.3723 10.71 26.3923 10.72 26.3923C10.72 26.3923 10.72 26.4023 10.72 26.4123C10.72 26.4223 10.72 26.4323 10.71 26.4523C10.7 26.4723 10.69 26.4723 10.68 26.4723C10.67 26.4723 10.65 26.4723 10.64 26.4723C10.63 26.4723 10.62 26.4723 10.6 26.4523C10.6 26.4423 10.58 26.4323 10.58 26.4123C10.58 26.3923 10.58 26.3823 10.58 26.3723C10.58 26.3623 10.59 26.3523 10.6 26.3423C10.61 26.3323 10.62 26.3323 10.64 26.3323L10.66 26.3523ZM10.62 26.2023C10.62 26.2023 10.62 26.1723 10.62 26.1623C10.62 26.1523 10.63 26.1423 10.64 26.1323C10.65 26.1323 10.66 26.1223 10.68 26.1223C10.7 26.1223 10.72 26.1323 10.74 26.1423C10.75 26.1523 10.76 26.1723 10.76 26.1923C10.76 26.2023 10.76 26.2123 10.75 26.2323C10.75 26.2423 10.73 26.2523 10.72 26.2523C10.71 26.2523 10.69 26.2523 10.68 26.2523C10.67 26.2523 10.66 26.2523 10.64 26.2323C10.64 26.2223 10.62 26.2123 10.62 26.1923V26.2023ZM10.99 26.0923V25.9923L11.03 26.0323C11.16 26.1323 11.28 26.2323 11.41 26.3323L11.45 26.3623L10.86 26.6823L10.91 26.5823C10.98 26.4423 11.01 26.2723 10.98 26.1023L10.99 26.0923ZM11 25.7723C11 25.7723 11.53 25.2823 11.57 25.7823C11.58 25.9223 11.63 26.0623 11.69 26.1823L11.73 26.2523C11.73 26.2523 11.69 26.2723 11.64 26.3023C11.41 26.1323 11.2 25.9623 11 25.7723ZM13.25 26.6023C13.74 26.8323 14.26 27.0623 14.52 27.1823C14.38 27.1623 14.23 27.1823 14.08 27.2223C13.94 27.2723 13.82 27.3523 13.71 27.4523C13.56 27.3623 13.16 27.1323 12.74 26.9123C12.9 26.7923 13.07 26.6923 13.24 26.6023H13.25ZM14.78 27.3123C15.19 27.3523 14.72 27.7523 14 27.6623C13.64 27.6223 14.05 27.2423 14.78 27.3123ZM13.31 26.4423C13.24 26.4623 13.16 26.4823 13.08 26.4623C13.01 26.4623 12.93 26.4223 12.87 26.3823C12.81 26.3323 12.76 26.2823 12.72 26.2123C12.57 25.9223 12.49 25.9923 12.35 26.0923C12.21 26.1923 11.99 26.4523 11.8 26.1323C11.62 25.8023 11.78 25.4223 11.39 25.4623C10.91 25.5223 10.86 26.1223 10.3 25.6923C10.24 25.6523 10.2 25.6023 10.16 25.5423C10.13 25.4823 10.1 25.4123 10.1 25.3423C10.12 25.1923 10.16 25.0423 10.23 24.9023C10.38 24.8623 10.52 24.8323 10.66 24.8123C10.83 24.8823 10.97 24.9923 11.06 25.1423C11.06 25.1423 11.06 25.1523 11.07 25.1523H11.08C11.08 25.1523 11.08 25.1523 11.09 25.1523C11.09 25.1523 11.09 25.1423 11.09 25.1323V25.1123C11 24.9723 10.89 24.8623 10.74 24.7923C11.19 24.7123 11.51 24.7023 11.82 24.8223C12.18 25.1023 12.18 25.2723 12.16 25.5423C12.16 25.5423 12.16 25.5523 12.16 25.5623C12.16 25.5623 12.17 25.5723 12.18 25.5723C12.19 25.5723 12.19 25.5723 12.2 25.5723C12.2 25.5723 12.2 25.5623 12.2 25.5523C12.21 25.3223 12.22 25.1423 12 24.9223C12.29 25.1023 12.58 25.4023 12.98 25.9023C12.98 25.9023 12.99 25.9123 13 25.9123C13.01 25.9123 13.01 25.9123 13.02 25.9123C13.02 25.9123 13.03 25.9023 13.03 25.8923C13.03 25.8823 13.03 25.8823 13.03 25.8723C12.63 25.3723 12.33 25.0623 12.04 24.8823C12.33 24.9323 12.8 24.9723 13.02 24.8823C13.02 24.8823 13.03 24.8723 13.03 24.8623V24.8423C13.03 24.8423 13.02 24.8323 13.01 24.8323C13 24.8323 12.99 24.8323 12.99 24.8323C12.73 24.9423 12.07 24.8523 11.84 24.7823C11.55 24.6623 11.24 24.6623 10.82 24.7323C11.13 24.5623 11.41 24.3623 11.66 24.1223C11.66 24.1223 11.66 24.1123 11.66 24.1023C11.66 24.0923 11.66 24.0923 11.66 24.0823C11.66 24.0823 11.65 24.0823 11.64 24.0823C11.64 24.0823 11.63 24.0823 11.62 24.0923C11.33 24.3723 11 24.6023 10.64 24.7723C10.52 24.7923 10.38 24.8223 10.24 24.8523C10.5 24.3223 11 23.7423 11.27 23.5823C11.5 23.4623 11.72 23.4523 11.86 23.6223C12.15 23.9823 11.8 24.3723 12.31 24.4023C12.81 24.4323 12.99 24.2823 13.27 24.5923C13.56 24.9023 12.74 25.1923 13.17 25.4023C13.65 25.6323 13.67 26.0823 13.46 26.3223C13.41 26.3823 13.34 26.4223 13.29 26.4523L13.31 26.4423ZM13.54 25.5523C13.82 25.4423 14.1 25.3523 14.34 25.2723C14.4 25.3323 14.46 25.3723 14.54 25.3923C14.28 25.4823 13.97 25.5923 13.64 25.7323C13.62 25.6623 13.58 25.6023 13.53 25.5523H13.54ZM15.23 25.9523C14.54 25.8723 14.63 25.2623 15.09 25.2123C15.67 25.1523 16.53 25.6723 17.61 25.5723C16.73 25.9123 15.92 26.0223 15.23 25.9423V25.9523ZM21.04 23.0723C21.04 23.0723 21.03 23.0623 21.02 23.0623C21.02 23.0623 21.01 23.0623 21 23.0623C20.89 23.1323 20.79 23.1823 20.7 23.2423C20.61 23.2223 20.55 23.1523 20.51 23.0823C20.84 22.9623 21.15 22.8023 21.44 22.6123C21.81 22.6523 22.18 22.6123 22.55 22.5023C22.03 22.9023 21.68 23.1823 20.95 23.2723C20.89 23.2723 20.83 23.2723 20.77 23.2723C20.85 23.2223 20.94 23.1723 21.03 23.1223C21.03 23.1223 21.04 23.1123 21.04 23.1023C21.04 23.0923 21.04 23.0923 21.04 23.0823V23.0723ZM23.37 21.8623C23.37 21.8623 23.46 21.7823 23.51 21.7423C23.46 21.7823 23.42 21.8223 23.37 21.8623ZM21.49 22.3523C21.69 22.2523 21.88 22.1123 22.06 21.9623C22.06 21.9623 22.07 21.9523 22.07 21.9423C22.07 21.9323 22.07 21.9323 22.07 21.9223C22.07 21.9223 22.06 21.9123 22.05 21.9123C22.04 21.9123 22.04 21.9123 22.03 21.9123C21.86 22.0623 21.67 22.1923 21.46 22.3023C21.44 22.2623 21.43 22.2323 21.43 22.1823C21.64 22.0723 21.84 21.9323 22.02 21.7723C22.06 21.7523 22.09 21.7323 22.13 21.7123C22.44 21.7323 22.74 21.7023 23.04 21.6223C23.04 21.6223 22.54 22.2223 21.85 22.3823C21.79 22.4023 21.73 22.4023 21.67 22.4023C21.61 22.4023 21.55 22.3823 21.5 22.3423L21.49 22.3523ZM22.88 21.5923C22.95 21.5823 23.02 21.5623 23.08 21.5423C23.01 21.5623 22.95 21.5823 22.88 21.5923ZM22.55 21.5523C22.49 21.5623 22.43 21.5623 22.37 21.5523C22.52 21.4523 22.69 21.3123 22.9 21.1323C22.9 21.1323 22.91 21.1223 22.91 21.1123C22.91 21.1023 22.91 21.1023 22.91 21.0923C22.91 21.0923 22.9 21.0823 22.89 21.0823C22.88 21.0823 22.88 21.0823 22.87 21.0823C22.63 21.2823 22.46 21.4223 22.3 21.5323C22.25 21.5223 22.21 21.4923 22.18 21.4623C22.15 21.4323 22.12 21.3923 22.11 21.3423C22.32 21.1723 22.52 21.0023 22.69 20.8023C23.01 20.7323 23.34 20.6823 23.66 20.6623C23.08 21.3023 22.84 21.4923 22.54 21.5523H22.55ZM22.11 21.2723C22.13 21.2023 22.15 21.1323 22.2 21.0723C22.24 21.0123 22.3 20.9623 22.36 20.9223C22.44 20.8823 22.53 20.8423 22.61 20.8223C22.45 20.9823 22.29 21.1323 22.11 21.2623V21.2723ZM23.1 17.5623C22.95 18.2423 23.3 18.7623 23.07 19.0023C22.84 19.2423 22.42 19.4923 22.59 18.5823C22.64 18.3023 23.1 17.5623 23.1 17.5623ZM13.05 1.3923C18.91 1.4023 23.65 6.17229 23.64 12.0323C23.63 17.8723 18.9 22.6023 13.08 22.6223L13.72 21.0423C15.73 20.8923 17.56 20.0823 18.99 18.8223L18.84 18.7623C17.46 19.9523 15.7 20.7323 13.78 20.8923L14.43 19.3023C15.46 19.1023 16.42 18.6923 17.25 18.1223L17.18 18.0923L20.57 19.4723L19.88 17.8323L19.91 17.9123C21.15 16.4723 21.94 14.6323 22.08 12.6123L23.64 11.9523L22.08 11.3123C21.93 9.30229 21.11 7.4723 19.85 6.0423L20.49 4.46231L18.92 5.12228C17.48 3.89228 15.64 3.10229 13.63 2.97229L12.97 1.3923L12.32 2.9823C10.32 3.1423 8.50002 3.9523 7.08002 5.2023L5.49002 4.55231C7.42002 2.59231 10.1 1.3823 13.07 1.3923H13.05ZM5.47 4.56229L6.17001 6.2323L6.13 6.15231C4.9 7.59231 4.12001 9.41229 3.98001 11.4123L2.41 12.0723C2.41 12.0723 2.41 12.0223 2.41 11.9923C2.41 9.10231 3.58002 6.48229 5.46002 4.56229H5.47ZM2.10001 15.4123C2.10001 15.4123 2.10001 15.4123 2.10001 15.4023C2.10001 15.3923 2.10003 15.3723 2.09003 15.3623C2.09003 15.3823 2.10002 15.4023 2.11002 15.4123H2.10001ZM1.06003 15.2623C1.05003 15.5223 1.23002 15.7523 1.33002 15.8523C1.24002 15.7523 1.05003 15.5223 1.06003 15.2623ZM1.41 15.9323C1.41 15.9323 1.41001 15.9423 1.42001 15.9523C1.42001 15.9523 1.42 15.9323 1.41 15.9323ZM1.29001 16.2723C1.29001 16.2723 1.32002 16.2623 1.33002 16.2523C1.32002 16.2523 1.30001 16.2623 1.29001 16.2723C1.24001 16.2923 1.2 16.3123 1.16 16.3523C1.2 16.3223 1.24001 16.2923 1.29001 16.2723ZM1.09003 16.4323C1.09003 16.4323 1.05001 16.4823 1.04001 16.5123C1.05001 16.4823 1.07003 16.4623 1.09003 16.4323ZM1.02002 16.8323C1.02002 16.8323 1.02003 16.8623 1.03003 16.8723C1.03003 16.8623 1.03002 16.8423 1.02002 16.8323ZM0.870026 16.9823C0.870026 16.9823 0.780021 16.9823 0.740021 16.9923C0.780021 16.9823 0.830026 16.9723 0.870026 16.9823ZM0.550018 17.1023C0.550018 17.1023 0.540009 17.1223 0.540009 17.1323C0.540009 17.1323 0.540018 17.1123 0.550018 17.1023ZM0.530029 17.1323C0.530029 17.1323 0.530029 17.1723 0.530029 17.1923C0.550029 17.3423 0.650031 17.4823 0.750031 17.6023C0.650031 17.4923 0.540029 17.3423 0.530029 17.1923C0.530029 17.1723 0.530029 17.1523 0.530029 17.1323ZM0.990021 17.8323C0.990021 17.8323 0.990021 17.8723 0.990021 17.8823C0.990021 17.8623 0.990021 17.8423 0.990021 17.8323ZM1.17001 18.0623C1.17001 18.0623 1.11003 18.0423 1.09003 18.0323C1.07003 18.0223 1.05003 18.0023 1.03003 17.9723C1.03003 17.9623 1.01001 17.9323 1.01001 17.9123C1.01001 17.9323 1.03003 17.9523 1.03003 17.9723C1.05003 17.9923 1.07003 18.0123 1.09003 18.0323C1.11003 18.0423 1.14001 18.0523 1.17001 18.0623ZM1.65002 18.9123C1.65002 18.9123 1.66001 18.9223 1.67001 18.9323C1.67001 18.9323 1.66002 18.9223 1.65002 18.9123ZM1.73001 19.0023C1.88001 19.1423 2.09003 19.2523 2.37003 19.2823C2.08003 19.2523 1.87001 19.1423 1.73001 19.0023ZM2.40002 19.4923C2.38002 19.5523 2.37 19.6123 2.38 19.6723C2.38 19.6123 2.38002 19.5523 2.40002 19.4923ZM2.38 19.7123C2.38 19.7123 2.38 19.6923 2.38 19.6723C2.38 19.6823 2.38 19.6923 2.38 19.7123ZM2.58002 20.0723C2.69002 20.2023 2.81003 20.3023 2.81003 20.3923C2.81003 20.3023 2.70002 20.1923 2.58002 20.0723ZM3.34003 21.5523C3.34003 21.5523 3.42001 21.6123 3.42001 21.6723C3.42001 21.6123 3.39003 21.5823 3.34003 21.5523ZM3.45001 22.5823C3.02001 22.4323 3.03003 22.1623 3.03003 22.1223C3.03003 22.0523 3.07 21.9923 3.13 21.9423C3.08 21.9923 3.03003 22.0423 3.03003 22.1223C3.03003 22.1523 3.03001 22.4323 3.45001 22.5723L3.63 22.6323L3.45001 22.5823ZM3.32001 22.8423C3.32001 22.8423 3.30002 22.9023 3.30002 22.9323C3.30002 22.9823 3.31003 23.0223 3.34003 23.0723C3.31003 23.0323 3.30002 22.9823 3.30002 22.9323C3.30002 22.9023 3.30001 22.8723 3.32001 22.8423ZM3.67001 23.2923C3.83001 23.3523 4.00001 23.3823 4.17001 23.4023C4.00001 23.3923 3.83001 23.3523 3.67001 23.2923ZM4.26001 23.5023C4.27001 23.5023 4.29002 23.5123 4.30002 23.5223C4.29002 23.5223 4.27001 23.5223 4.26001 23.5023ZM4.41 23.6123C4.41 23.6123 4.42 23.7023 4.44 23.7523C4.44 23.7723 4.46 23.7923 4.47 23.8123C4.46 23.7923 4.44002 23.7723 4.43002 23.7523C4.41002 23.7123 4.40002 23.6623 4.40002 23.6123H4.41ZM5.02002 24.2423L4.80002 24.2523H5.02002V24.2423ZM4.33002 24.4123C4.45002 24.3223 4.61001 24.2723 4.79001 24.2623C4.62001 24.2723 4.46002 24.3323 4.33002 24.4123ZM4.18002 25.1023C4.18002 25.1023 4.16002 25.0723 4.15002 25.0523C4.15002 25.0723 4.17002 25.0823 4.18002 25.1023C4.27002 25.2023 4.38003 25.2723 4.50003 25.2923C4.38003 25.2623 4.26002 25.1923 4.18002 25.1023ZM4.92001 25.2623C4.86001 25.2823 4.80002 25.2923 4.74002 25.3023C4.80002 25.3023 4.86001 25.2823 4.92001 25.2623ZM5.66 25.7923H5.54001C5.42001 25.7923 5.36001 25.7423 5.32001 25.6523C5.37001 25.7423 5.43001 25.7923 5.54001 25.7923H5.66C5.66 25.7923 5.46 26.3723 5.66 26.6623C5.47 26.3723 5.66 25.7923 5.66 25.7923ZM6.81003 26.0723H6.79001C6.79001 26.0723 6.58002 26.0923 6.36002 26.3623C6.20002 26.5623 5.99003 26.7523 5.84003 26.7523C5.82003 26.7523 5.80001 26.7523 5.79001 26.7523C5.81001 26.7523 5.83003 26.7523 5.84003 26.7523C5.99003 26.7523 6.20002 26.5523 6.36002 26.3623C6.58002 26.1023 6.77001 26.0723 6.79001 26.0723H6.83002H6.81003ZM7.07001 26.1723C6.99001 26.1623 6.92001 26.1323 6.85001 26.1023C6.92001 26.1423 6.99001 26.1623 7.07001 26.1723C7.11001 26.1823 7.14002 26.2023 7.18002 26.2223C7.15002 26.2023 7.11001 26.1823 7.07001 26.1723ZM7.21002 26.2523C7.21002 26.2523 7.23002 26.2723 7.24002 26.2823C7.24002 26.2723 7.22002 26.2623 7.21002 26.2523ZM7.01001 26.9823C7.01001 26.9823 7.01001 27.0323 7.01001 27.0623C7.01001 27.0623 7.01001 27.0623 7.01001 27.0723C7.01001 27.0723 7.01001 27.0723 7.01001 27.0623C7.01001 27.0323 7.01001 27.0123 7.01001 26.9823ZM7.03003 27.2823C7.03003 27.2823 7.01003 27.1923 7.00003 27.1423C7.00003 27.1923 7.01003 27.2323 7.03003 27.2823C7.05003 27.3523 7.09001 27.4223 7.14001 27.4723C7.16001 27.4923 7.18001 27.5123 7.20001 27.5223C7.18001 27.5023 7.16001 27.4923 7.14001 27.4723C7.09001 27.4123 7.05003 27.3523 7.03003 27.2823ZM7.40002 27.6123C7.40002 27.6123 7.49003 27.6323 7.53003 27.6323C7.55003 27.6323 7.57002 27.6323 7.58002 27.6323C7.56002 27.6323 7.54003 27.6323 7.53003 27.6323C7.49003 27.6323 7.44002 27.6323 7.40002 27.6123ZM7.79001 27.5823C7.79001 27.5823 7.75001 27.6023 7.73001 27.6023C7.75001 27.6023 7.77001 27.5923 7.79001 27.5823C7.83001 27.5623 7.86001 27.5423 7.89001 27.5223C7.86001 27.5423 7.82001 27.5623 7.79001 27.5823ZM8.22 26.7523C8.22 26.7523 8.22001 26.7523 8.23001 26.7523C8.23001 26.7523 8.23 26.7523 8.22 26.7523ZM8.38 26.7323C8.38 26.7323 8.42 26.7523 8.44 26.7623C8.42 26.7523 8.4 26.7423 8.38 26.7323ZM8.60001 26.8623C8.65001 26.8823 8.71002 26.9023 8.77002 26.9023C8.86002 26.9023 8.94001 26.8623 9.01001 26.8223C8.94001 26.8723 8.86002 26.9123 8.77002 26.9123C8.71002 26.9123 8.66001 26.8923 8.60001 26.8723V26.8623ZM9.13 26.6523L9.16 26.5523L9.12003 26.6523H9.13ZM9.26001 26.6323L9.28003 26.6523C9.28003 26.6523 9.26001 26.6423 9.26001 26.6323ZM9.43002 26.7423C9.43002 26.7423 9.50001 26.7523 9.54001 26.7523C9.59001 26.7523 9.65001 26.7523 9.70001 26.7323C9.65001 26.7523 9.60001 26.7623 9.54001 26.7623C9.50001 26.7623 9.46002 26.7623 9.43002 26.7523V26.7423ZM9.98001 26.8523C9.98001 26.8523 9.95001 26.7823 9.95001 26.7423C9.95001 26.7423 9.96001 26.8123 9.98001 26.8523C9.98001 26.8723 10 26.8823 10.01 26.9023C10 26.8923 9.99001 26.8723 9.98001 26.8523ZM10.05 26.9323C10.05 26.9323 10.05 26.9323 10.06 26.9323C10.06 26.9323 10.06 26.9323 10.05 26.9323ZM10.48 26.9123C10.48 26.9123 10.07 27.1523 10.02 27.1923C10.02 27.1923 10.02 27.1923 10.01 27.2023C10.01 27.2023 10.01 27.1923 10.02 27.1923C10.07 27.1523 10.44 26.9323 10.48 26.9123ZM10 27.2223C10 27.2223 10 27.2223 10 27.2423C10 27.2423 10 27.2523 10 27.2623C10 27.2623 10 27.2523 10 27.2423C10 27.2423 10 27.2323 10 27.2223ZM10.56 27.4623C10.56 27.4623 10.46 27.4823 10.4 27.4823C10.35 27.4823 10.3 27.4823 10.24 27.4623C10.29 27.4723 10.35 27.4823 10.4 27.4823C10.46 27.4823 10.51 27.4823 10.56 27.4623C10.62 27.4523 10.68 27.4223 10.73 27.4023C10.68 27.4323 10.62 27.4523 10.56 27.4623ZM10.79 27.3723C10.79 27.3723 10.9 27.2923 11.05 27.1923C10.89 27.2923 10.79 27.3723 10.79 27.3723ZM11.3 27.0323C11.52 26.9023 11.78 26.7523 12 26.6723C11.77 26.7523 11.52 26.8923 11.3 27.0223V27.0323ZM11.27 27.0423C11.27 27.0423 11.28 27.0423 11.29 27.0323C11.29 27.0323 11.28 27.0323 11.27 27.0423ZM11.08 27.2823C11.08 27.2823 10.98 27.3523 10.93 27.3923C10.98 27.3523 11.03 27.3223 11.08 27.2823ZM10.85 27.5823C10.85 27.5823 10.85 27.5723 10.85 27.5623C10.85 27.5623 10.85 27.5723 10.85 27.5823C10.85 27.6123 10.88 27.6423 10.91 27.6723C10.88 27.6523 10.86 27.6223 10.85 27.5823ZM11.03 27.7323C11.13 27.7623 11.25 27.7723 11.3 27.7723C11.44 27.7723 11.71 27.7123 11.86 27.6323C11.72 27.7123 11.44 27.7723 11.3 27.7723C11.25 27.7723 11.13 27.7723 11.03 27.7323ZM12.67 27.0123L12.63 26.9923L12.59 27.0123C12.35 27.1623 12.14 27.3523 11.95 27.5623C11.95 27.5623 11.95 27.5823 11.94 27.5923C11.94 27.5923 11.94 27.5823 11.95 27.5723C12.14 27.3523 12.36 27.1723 12.6 27.0223L12.64 27.0023L12.68 27.0223C12.92 27.1623 13.42 27.4523 13.68 27.6023L13.74 27.6423L13.68 27.6123C13.42 27.4623 12.92 27.1623 12.68 27.0323L12.67 27.0123ZM13.97 27.7323C13.97 27.7323 13.88 27.7123 13.84 27.6923L13.75 27.6323L13.84 27.6823C13.88 27.7023 13.93 27.7223 13.97 27.7223C14.04 27.7323 14.12 27.7323 14.2 27.7323C14.34 27.7323 14.47 27.7123 14.59 27.6823C14.48 27.7123 14.35 27.7323 14.2 27.7323C14.12 27.7323 14.05 27.7323 13.97 27.7223V27.7323ZM14.91 27.5323C14.91 27.5323 14.98 27.4423 14.98 27.4023C14.98 27.4423 14.95 27.4923 14.91 27.5323ZM14.89 27.2623C14.89 27.2623 14.94 27.2923 14.96 27.3223C14.96 27.3323 14.98 27.3523 14.98 27.3623C14.98 27.3523 14.98 27.3323 14.96 27.3223C14.94 27.3023 14.92 27.2823 14.89 27.2623ZM13.81 26.5823H13.85C13.85 26.5823 13.92 26.6123 13.97 26.6223C13.93 26.6123 13.89 26.6023 13.85 26.5923H13.81V26.5823ZM14.9 27.0823C14.78 27.0123 14.65 26.9423 14.53 26.8723C14.66 26.9423 14.79 27.0123 14.9 27.0823ZM15.15 27.2223C15.23 27.2623 15.32 27.2823 15.4 27.2823C15.31 27.2823 15.23 27.2623 15.15 27.2223ZM15.87 27.1123C15.87 27.1123 15.89 27.0823 15.89 27.0623C15.89 27.0323 15.89 27.0123 15.89 26.9923C15.89 27.0123 15.89 27.0423 15.89 27.0623C15.89 27.0823 15.88 27.1023 15.87 27.1123ZM15.73 27.5923C15.95 27.6423 16.17 27.6523 16.4 27.6523C16.18 27.6523 15.95 27.6423 15.73 27.5923ZM18.16 26.4623V26.5223C18.08 26.7723 18.03 27.0323 18 27.2923C17.65 27.4623 17.28 27.5723 16.9 27.6223C17.28 27.5623 17.65 27.4523 18 27.2923C18.03 27.0323 18.08 26.7723 18.15 26.5223V26.4623L18.63 26.4523L18.16 26.4623ZM18.44 26.7223C18.4 26.7923 18.37 26.8623 18.35 26.9323C18.37 26.8623 18.41 26.7923 18.44 26.7223ZM19.63 25.9423C19.66 25.8623 19.69 25.7923 19.71 25.7023C19.69 25.7823 19.66 25.8623 19.63 25.9423ZM17.71 25.6423C17.71 25.6423 17.58 25.7123 17.56 25.7323C17.96 25.7923 19.19 25.7123 19.65 25.6523C19.65 25.6523 19.66 25.6623 19.67 25.6723C19.67 25.6723 19.66 25.6523 19.65 25.6523C19.18 25.7123 17.95 25.7923 17.56 25.7323C17.58 25.7123 17.66 25.6723 17.71 25.6423C18.15 25.6423 18.58 25.5823 19.01 25.4923C18.58 25.5823 18.15 25.6423 17.72 25.6423H17.71ZM21.47 24.5723C21.05 24.8323 20.6 25.0323 20.14 25.1623C20.03 25.1823 19.92 25.2223 19.81 25.2623C19.91 25.2223 20.02 25.1923 20.14 25.1623C20.61 25.0223 21.06 24.8323 21.47 24.5723ZM21.48 24.5423V24.5623C21.48 24.5623 21.48 24.5623 21.48 24.5523V24.5323C21.48 24.5323 21.48 24.5323 21.48 24.5423ZM19.28 25.1823C18.95 25.1223 18.66 24.9923 18.66 24.9923C18.66 24.9923 18.96 25.1223 19.28 25.1823ZM21.3 24.1123C21.18 24.1423 21.07 24.1723 20.95 24.1923C21.07 24.1723 21.19 24.1423 21.3 24.1123ZM20.02 24.2023C20.32 24.1823 20.69 24.0323 21.04 23.8623C20.69 24.0423 20.33 24.1823 20.03 24.2123L20.02 24.2023ZM21.56 23.5523C21.44 23.6223 21.32 23.7023 21.19 23.7723C21.32 23.7023 21.45 23.6223 21.56 23.5523C21.99 23.3323 22.4 23.0923 22.79 22.8123C22.4 23.0923 21.99 23.3323 21.57 23.5523H21.56ZM23.08 22.5323C22.85 22.7023 22.62 22.8723 22.37 23.0223C22.61 22.8723 22.85 22.7023 23.08 22.5323ZM20.83 23.3423C21.44 23.3023 21.95 23.0223 22.41 22.6623C21.94 23.0223 21.44 23.3123 20.83 23.3423ZM21.59 22.5023C21.82 22.4823 22.03 22.4123 22.23 22.3223C22.04 22.4123 21.83 22.4823 21.59 22.5023ZM23.08 21.6823C22.85 21.9123 22.58 22.1423 22.25 22.3123C22.58 22.1523 22.86 21.9123 23.08 21.6823C23.37 21.4523 23.64 21.1923 23.9 20.9323C23.64 21.2023 23.37 21.4523 23.08 21.6923V21.6823ZM23.77 20.9923C23.77 20.9923 23.82 20.9423 23.85 20.9123C23.82 20.9423 23.8 20.9723 23.77 20.9923ZM24 20.7723C24 20.7723 24 20.7723 23.99 20.7723C23.99 20.7723 23.99 20.7723 23.98 20.7723C23.98 20.7723 23.98 20.7723 23.99 20.7723C23.99 20.7723 23.99 20.7723 24 20.7723ZM23.73 20.6623C23.42 21.0623 22.95 21.5023 22.64 21.6023C22.95 21.5023 23.42 21.0723 23.73 20.6623C23.83 20.5623 23.92 20.4523 24.01 20.3523C23.92 20.4623 23.82 20.5623 23.73 20.6623ZM24.86 19.2023V19.2123V19.1923V19.2023ZM24.08 19.6323C23.74 20.1123 23.56 20.4823 23.27 20.6123C23.56 20.4823 23.74 20.1223 24.08 19.6323C24.38 19.3023 24.63 18.9423 24.86 18.5623C24.64 18.9423 24.38 19.3023 24.08 19.6323ZM24.92 18.3923C24.92 18.3923 24.92 18.3923 24.91 18.3923C24.91 18.3923 24.91 18.3923 24.92 18.3923ZM24.44 18.6623C24.28 18.9923 24.08 19.3023 23.83 19.5823C24.08 19.3023 24.28 19.0023 24.44 18.6623C24.5 18.5823 24.55 18.5023 24.6 18.4223C24.55 18.5023 24.49 18.5823 24.44 18.6623ZM25.01 17.5623H25.02H25H25.01ZM24.37 18.6523C24.41 18.5923 24.45 18.5323 24.49 18.4823C24.45 18.5423 24.41 18.6023 24.37 18.6523C24.33 18.6823 24.3 18.7123 24.26 18.7423C24.3 18.7123 24.34 18.6923 24.37 18.6523Z" fill="#094160"/>
</svg>
