<svg width="10" height="18" viewBox="0 0 10 18" fill="none" xmlns="http://www.w3.org/2000/svg">
<path d="M5.67269 7.12757H9.70308L9.25526 9.05664H5.67269V17.7375H3.8814V9.05664H0.298828V7.12757H3.8814V5.32195C3.8814 3.60218 4.04799 2.97812 4.35968 2.34924C4.66532 1.72807 5.13709 1.22002 5.71389 0.890857C6.29785 0.555198 6.87733 0.375793 8.47426 0.375793C8.94238 0.375793 9.35199 0.42402 9.70308 0.520474V2.30487H8.47426C7.28843 2.30487 6.92749 2.38011 6.55848 2.5923C6.29361 2.74133 6.07759 2.97431 5.93959 3.25976C5.74255 3.65619 5.67269 4.0449 5.67269 5.32195V7.12757Z" fill="#0A476A"/>
</svg>
